<svg xmlns="http://www.w3.org/2000/svg" version="1.1" width="600px" height="600px" viewBox="0 0 200 200" style="overflow:hidden!important;"><g id="svga-group-wrapper"><g id="svga-group-backs-single"><path id="SvgjsPath13209" d="M0 0h200v200H0V0z" fill="#49a29e" stroke-width="none" opacity="1"></path><path id="SvgjsPath13210" d="m156.3 131.2-16.8-.4-17 .6c-.7 0-8.8-.3-9.4-.2-9.8 1.2-14.9.6-20.8 0l-10.9-.1c-1.5 0-3.5-1.6-3.5-3.6l.1-5.6c1-5.5-.2-9.4-.2-14.7l.2-3.6c0-1.5 2.3-2.3 5.1-2.4l7.5.2c3.7-.1 9.6.8 12 .3l11-.5c3.8-.2 10.8-.8 20.5-.5 0 0 10.3 0 19.3.2l5.6-.1c1.5 0 3.2 1.2 3.2 2.7v5c-.1 3.3.1 5.9.1 10.1l.2 5.5-.4 3.4c-.1 2.5-3.8 4.1-5.8 3.7zm-43.4-33.4-16.8-.4-17 .6c-.7 0-8.8-.3-9.4-.2-9.8 1.2-14.9.6-20.8 0L38 97.7c-1.5 0-3.5-1.6-3.5-3.6v-5.6c1-5.5-.2-9.4-.2-14.7l.2-3.6c0-1.5 2.3-2.3 5.1-2.4l7.5.2c3.7-.1 9.6.8 12 .3l11-.5c3.8-.2 10.8-.8 20.5-.5 0 0 10.3 0 19.3.2l5.6-.1c1.5 0 3.2 1.2 3.2 2.7v5c-.1 3.3.1 5.9.1 10.1l.2 5.5-.4 3.4c0 2.5-3.6 4.1-5.7 3.7zm43.4-32.4-16.8-.4-17 .6c-.7 0-8.8-.3-9.4-.2-9.8 1.2-14.9.6-20.8 0l-10.9-.1c-1.5 0-3.5-1.6-3.5-3.6l.1-5.6c1-5.5-.2-9.4-.2-14.7l.2-3.6c0-1.5 2.3-2.3 5.1-2.4l7.5.2c3.7-.1 9.6.8 12 .3l11-.5c3.8-.2 10.8-.8 20.5-.5 0 0 10.3 0 19.3.2l5.6-.1c1.5 0 3.2 1.2 3.2 2.7v5c-.1 3.3.1 5.9.1 10.1l.2 5.5-.3 3.4c-.2 2.5-3.9 4.1-5.9 3.7zm-43.4-33.3-16.8-.4-17 .6c-.7 0-8.8-.3-9.4-.2-9.8 1.2-14.9.6-20.8 0L38 32c-1.5 0-3.5-1.6-3.5-3.6v-5.6c1-5.5-.2-9.4-.2-14.7l.2-3.6c0-1.5 2.3-2.3 5.1-2.4l7.5.2c3.7-.1 9.6.8 12 .3l11-.5c3.8-.2 10.8-.8 20.5-.5 0 0 10.3 0 19.3.2l5.6-.1c1.5 0 3.2 1.2 3.2 2.7v5c-.1 3.3.1 5.9.1 10.1l.2 5.5-.4 3.4c0 2.5-3.6 4-5.7 3.7zm43.4 166.2-16.8-.4-17 .6c-.7 0-8.8-.3-9.4-.2-9.8 1.2-14.9.6-20.8 0l-10.9-.1c-1.5 0-3.5-1.6-3.5-3.6l.1-5.6c1-5.5-.2-9.4-.2-14.7l.2-3.6c0-1.5 2.3-2.3 5.1-2.4l7.5.2c3.7-.1 9.6.8 12 .3l11-.5c3.8-.2 10.8-.8 20.5-.5 0 0 10.3 0 19.3.2l5.6-.1c1.5 0 3.2 1.2 3.2 2.7v5c-.1 3.3.1 5.9.1 10.1l.2 5.5-.4 3.4c-.1 2.5-3.8 4.1-5.8 3.7zM112.9 165l-16.8-.4-17 .6c-.7 0-8.8-.3-9.4-.2-9.8 1.2-14.9.6-20.8 0l-10.9-.1c-1.5 0-3.5-1.6-3.5-3.6v-5.6c1-5.5-.2-9.4-.2-14.7l.2-3.6c0-1.5 2.3-2.3 5.1-2.4l7.5.2c3.7-.1 9.6.8 12 .3l11-.4c3.8-.2 10.8-.8 20.5-.5 0 0 10.3 0 19.3.2l5.6-.1c1.5 0 3.2 1.2 3.2 2.7v5c-.1 3.3.1 5.9.1 10.1l.2 5.5-.4 3.4c0 2.4-3.6 4-5.7 3.6zM25.7 97.8c2.1.4 5.7-1.2 5.7-3.7l.4-3.4-.2-5.5c.1-4.2-.1-6.8-.1-10.1v-5c0-1.5-1.8-2.7-3.2-2.7l-5.6.1c-9-.2-19.3-.2-19.3-.2H.1v30.5l8.8-.3 16.8.3zm5.8 39.5c0-1.5-1.8-2.7-3.2-2.7l-5.6.1c-9-.2-19.3-.2-19.3-.2-1.2 0-2.2-.1-3.3-.1v30.5l8.8-.3 16.8.4c2.1.4 5.7-1.2 5.7-3.7l.4-3.4-.2-5.5c.1-4.2-.1-6.8-.1-10.1v-5zM14.9 35.9c-2.4.4-8.3-.4-12-.3L0 35.5v29.9l4.6.1c5.9.6 11 1.2 20.8 0 .7-.1 8.8.2 9.5.2l17-.6 16.8.4c2.1.4 5.7-1.2 5.7-3.7l.4-3.4-.2-5.5c.1-4.2-.1-6.8-.1-10.1v-5c0-1.5-1.8-2.7-3.2-2.7l-5.6.1c-9-.2-19.3-.2-19.3-.2-9.7-.3-16.7.3-20.5.5l-11 .4zm59.6 72.6v-5c0-1.5-1.8-2.7-3.2-2.7l-5.6.1c-9-.2-19.3-.2-19.3-.2-9.7-.3-16.7.3-20.5.5l-11 .5c-2.4.4-8.3-.4-12-.3l-2.9-.1v29.9l4.6.1c5.9.6 11 1.2 20.8 0 .7-.1 8.8.2 9.5.2l17-.6 16.8.4c2.1.4 5.7-1.2 5.7-3.7l.4-3.4-.2-5.5c0-4.2-.2-6.8-.1-10.2zm0 67.2v-5c0-1.5-1.8-2.7-3.2-2.7l-5.6.1c-9-.2-19.3-.2-19.3-.2-9.7-.3-16.7.3-20.5.5l-11 .5c-2.4.4-8.3-.4-12-.3l-2.9-.2v29.9l4.6.1c5.9.6 11 1.2 20.8 0 .7-.1 8.8.2 9.5.2l17-.6 16.8.4c2.1.4 5.7-1.2 5.7-3.7l.4-3.4-.2-5.5c0-4.2-.2-6.8-.1-10.1zM0 32l8.8-.3 16.8.4c2.1.4 5.7-1.2 5.7-3.7l.4-3.4-.2-5.5c.1-4.2-.1-6.8-.1-10.1v-5c0-1.5-1.8-2.7-3.2-2.7l-5.6.1c-9-.2-19.3-.2-19.3-.2-1.1 0-2.2-.1-3.3-.1V32zm169.4 33.3 10.9.1c5.7.6 10.4.6 19.7-.5V35.4l-9-.4c-2.4.4-7.8-.1-11.5 0l-8.4.4c-2.8 0-5.1.9-5.1 2.4l-.2 3.6c0 5.3-1 10.2.2 14.7l-.1 5.6c0 2 2 3.6 3.5 3.6zm0 65.8 10.9.1c5.7.6 10.4.5 19.7-.6v-29.5l-9.1-.4c-2.4.4-7.8-.1-11.5 0l-8.4.4c-2.8.1-5.1.9-5.1 2.4l-.2 3.6c0 5.3-1 10.2.2 14.7l-.1 5.6c.1 2 2.1 3.7 3.6 3.7zM122.1 22.7l-.1 5.6c0 2 2 3.6 3.5 3.6l10.9.1c5.9.6 11 1.2 20.8 0 .7-.1 8.8.2 9.4.2l17-.6 16.4.4V1.8h-2.6c-9-.2-19.3-.2-19.3-.2-9.7-.3-16.7.3-20.5.5l-11 .5c-2.4.4-8.3-.4-12-.3l-7.5-.3c-2.8 0-5.1.9-5.1 2.4l-.1 3.6c0 5.4 1.2 9.2.2 14.7zm0 65.8-.1 5.6c0 2 2 3.6 3.5 3.6l10.9.1c5.9.6 11 1.2 20.8 0 .7-.1 8.8.2 9.4.2l17-.6 16.4.3V67.5l-2.6.1c-9-.2-19.3-.2-19.3-.2-9.7-.3-16.7.3-20.5.5l-11 .5c-2.4.4-8.3-.4-12-.3l-7.5-.2c-2.8.1-5.1.9-5.1 2.4l-.2 3.6c.1 5.2 1.3 9.1.3 14.6zm77.9 79.8-9.1-.4c-2.4.4-7.8-.1-11.5 0l-8.4.4c-2.8.1-5.1.9-5.1 2.4l-.2 3.6c0 5.3-1 10.2.2 14.7l-.1 5.6c0 2 2 3.6 3.5 3.6l10.9.1c5.7.6 10.4.5 19.7-.6l.1-29.4zm-16.4-3.7 16.4.4v-30.3l-2.6.1c-9-.2-19.3-.2-19.3-.2-9.7-.3-16.7.3-20.5.5l-11 .5c-2.4.4-8.3-.4-12-.3l-7.5-.2c-2.8.1-5.1.9-5.1 2.4l-.2 3.6c0 5.3 1.2 9.2.2 14.7l-.1 5.6c0 2 2 3.6 3.5 3.6l10.9.1c5.9.6 11 1.2 20.8 0 .7-.1 8.8.2 9.4.2l17.1-.7z" fill="#33938e" stroke-width="none" opacity="1"></path><path id="SvgjsPath13211" d="M34.5 22.7v5.6c0 2 2 3.6 3.5 3.6l10.9.1c5.9.6 11 1.2 20.8 0 .7-.1 8.8.2 9.4.2l17-.6 16.8.4c1.3.2 3.3-.3 4.5-1.4-.8 0-1.7-.3-2.6-.3-1.4 0-6.2-1.1-9.3-1.6-1.3-1.2-2.9-2-4.7-1.7-1.3.2-2.3.8-3.8 1-2.1.3-4.2-.1-6.3-.5-2.2-.4-4.2-.8-6.4-.8-.1 0-.1.1 0 .1 4.1.2 7.9 1.8 11.9 1.9 1.4 0 2.7-.5 4-.5.9 0 1.6.1 2.3.3-6.4 0-22.2.9-24.5 1.6-2.7.7-12.6.7-15.9-.7-3.4-1.5-20.3 0-21.7-.2-1.5-.2-1.7-2.7-1-7 .2-1.2.2-2.6.1-4.2.5.2.9.3 1.4.3 1.4 0 3-.9 4.2-1.5 2.2-1.1 4.4-2.2 6.5-3.5.1-.1 0-.2-.1-.2-2.5 1.3-5 2.4-7.7 3.2-1.3.4-2.7 1.1-4.1.5-.1 0-.2-.1-.3-.1-.3-4.1-1.2-8.7-1.5-10.9-.1-.7-.1-1.4 0-2 3.9-1.4 8.2 1 12.1 1.5 3.2.4 6.3.1 9.5-.4.2 0 .1-.3 0-.3-2.5.2-5 .4-7.6.1-2.7-.3-5.2-1.3-7.8-1.8-2-.4-3.9-.7-5.7 0 .1-.3.2-.6.3-.8-2.4.2-4.2 1-4.2 2.3L34.3 8c0 5.4 1.2 9.2.2 14.7zm71.2 39.6c-1.9-1-8.3.3-10.8 1-2.3.6-8.8-.6-11.6-1.8 2.3-.1 4.6-.5 6.4-1.7.1-.1.1-.4-.1-.4-2.6.3-4.9 1.1-7.5 1.3-1.5-1.7-1.2-7.2-.9-9.9.3-2.9-1.3-7.3-1.6-10.5-.2-1.8-.1-3.3.1-4.4-1.1.4-1.8 1-1.8 1.8l-.2 3.6c0 5.3 1.2 9.2.2 14.7l-.1 5.6c0 2 2 3.6 3.5 3.6l10.9.1c5.9.6 11 1.2 20.8 0 .7-.1 8.8.2 9.4.2l17-.6 16.8.4c1.5.3 3.8-.5 5-1.9h-.5c-2.2 0-3.5-1-5.4-1.6-.6-.2-2.2-.1-4.1.2-1.7-1.6-4.1-2.3-6.4-2-1.9.2-3.5 1.3-5.4 1.4-2 0-3.4-.7-5.4-.3-.1 0-.1.2 0 .2 2.5 0 4.9 1 7.3.4 3.4-.8 5.6-.9 8.6.4-3.7.6-8.1 1.4-9.6 1.2-2.6-.3-4.1.3-7 .3s-19.8-.3-22-.6c-2.1-.1-3.7.2-5.6-.7zm-1.2 33c-.4-.1-1.3-.1-2.5-.2.1-.5-.1-1.1-.5-1.4-.5-.4-1.6-.7-1.9.1-.1.2 0 .5.3.5s.7-.1 1-.1c.4.1.6.5.5.9-7.1-.1-22.9.5-25.5.5-3.1 0-16.7-.3-24.6.6s-12.5-2.3-13-3.4c-.1-.2-.2-.4-.2-.8 1.4-.4 2.9-.3 4.4-.2 2.1.1 4.2-.5 6.2-.3.8.1 1.4.6 2.2.4 1-.2 2-1.2 2.7-1.8 0 0 0-.1-.1-.1-1.3 1.1-1.8 1.5-3.4 1.2-.3-.1-.5-.5-.8-.5-2.2-.3-4.4.2-6.7-.1-1.7-.2-3.3-.3-4.7.2-.2-2.1-.2-5.2-.2-7.2 0-.4 0-.9-.1-1.4 2.9.4 5.8-2.4 8.7-2 .1 0 .1-.1 0-.2-1.7-.5-3.3.1-4.8.6 0-.1-.1-.2-.2-.2-1.4-.1-2.7 0-4-.3-.4-2.6-1.1-5.6-1.1-7.7 0-1.7-.6-2.8-1.3-3.5-.3.3-.5.7-.5 1.1l-.2 3.6c0 5.3 1.2 9.2.2 14.7v5.6c0 2 2 3.6 3.5 3.6l10.9.1c5.9.6 11 1.2 20.8 0 .7-.1 8.8.2 9.4.2l17-.6 16.8.4c1.6.3 4.1-.6 5.2-2.1-1.1.3-2.7.7-3.7.7-1.5.2-7.2-.4-9.8-.9zm13.8 34.8c-4.4-.3-7.3-.3-10.8-3.2-.1-.1-.3-.2-.4-.3 1-.2 2.1-.2 3.2.1 1 .3 1.9.8 3 .9 2.8.3 5.6-.5 8-1.7.4-.2.1-.8-.3-.7-1.8.4-3.5 1-5.4 1.2-2.2.3-3.5-.5-5.4-1.1.6.1 1.1.3 1.7.5.2.1.6-.2.3-.4-2.6-2.4-7.8-.6-10.8.1-5.4-.1-12.3 1.2-13.9 1.6-2.3.6-3.5.3-6.7-1.2s-.6-4.1 0-9.4c.1-.6.1-1 .1-1.4 3 2.9 7.2 4 11.3 3.1 2-.5 3.4-1.4 5.6-1.4 1.9 0 3.6.8 5.4 1.3 2.5.8 4.3 1.2 6.9.7.1 0 .1-.2 0-.2-4.6.5-8.4-2.5-12.9-2.6-1.8 0-3.4.7-5.2 1-4.2.8-7.8-.6-11-3.1-.1-2.4-1-2.3-1.9-5.1-.5-1.4-.9-2.9-1.2-4.2l-.1 2.4c0 5.3 1.2 9.2.2 14.7l-.1 5.6c0 2 2 3.6 3.5 3.6l10.9.1c5.9.6 11 1.2 20.8 0 .7-.1 8.8.2 9.4.2l17-.6 16.8.4c1.1.2 2.6-.2 3.8-.9-2-1.1-5.4-2.9-7.8-3.5-3.5-.9-6.7.6-11.4.9-4.7.5-18.2 2.9-22.6 2.6zm-14.1-4.4c1.1-.2 2.1-.4 3.2-.5-.6.2-1.1.5-1.7.8l-1.5-.3zm12.9 38.2c-.7-.1-1.4-.1-2-.1-1.5 0-3.5 0-6.5-.6-3.1-.6-9.4-.9-13.3-1.1s-16.3 1.5-18.5 1.3-6.1-.9-11.3-1.5c-5.2-.6-17.4.9-19.6 1.3-1.4.3-4-.3-5.8-1.7 1.2.1 2.4.1 3.6 0 .3 0 .4-.4.1-.5-1.4-.5-3.1-.5-4.6-.4-.4-.5-.7-1.1-.9-1.8-.6-3-.1-4.5 0-7.8 1.7 1.6 4.2 1.6 6.8 1.5 3.5-.1 5.9 1.2 8.9 2.3 2.9 1.1 5.7-.4 8.6.6.2.1.3-.3.1-.4-1.2-.4-1.6-.4-2.9-.4-2 0-3.6.6-5.6-.4-1.1-.5-2-1.6-3.1-2.2-3.8-1.9-10.2 1.4-12.9-2.9-.2-3.5-1.1-6.1-1.9-9.1-.4-1.6-.7-3.1-.6-4.3-.7.4-1.2.9-1.2 1.6l-.2 3.6c0 5.3 1.2 9.2.2 14.7v5.6c0 2 2 3.6 3.5 3.6l10.9.1c5.9.6 11 1.2 20.8 0 .7-.1 8.8.2 9.4.2l17-.6 16.8.4c1.2.3 2.9-.1 4.2-1zm39 32.9c-2.3-.2-9.7.5-14.4 0s-11.7-1.3-16.4-1.6-17.8.7-17.8.7-2.5-.4-6.5-.9-17.1.7-18.9-2c-1.1-1.6-.9-3-.6-4.7l1.2.6c1.1.4 2.2.4 3.3.5 1.7.2 3.2.7 4.8 1.2.2.1.4-.3.2-.4-1.3-1-2.5-1.5-4.2-1.8-1.7-.3-3.8-.2-5.2-1.2.2-.9.3-1.8.4-3 .1-1.1 0-2.1-.2-3.2.8.1 1.7.3 2.5.2.3 0 .3-.4.1-.5-.8-.2-1.8-.3-2.7-.4-.5-2.6-1.4-5.2-2.2-8.4-.3-1.3-.5-2.2-.6-2.9-.7.4-1.2.9-1.2 1.6l-.2 3.6c0 5.3 1.2 9.2.2 14.7l-.1 5.6c0 2 2 3.6 3.5 3.6l10.9.1c5.9.6 11 1.2 20.8 0 .7-.1 8.8.2 9.4.2l17-.6 16.8.4c1.4.2 3.6-.4 4.8-1.6-1.1 0-3 .4-4.7.2zm42.1-166.6c-1.7-1-7.7-.2-11.1 0s-16.7-.2-18.8 0-11.1-.7-14-1.2c-2.9-.5-14.2.2-17.6.7s-10.3-.7-10.5-2.7c-.2-1.9-.2-3.6.2-7.7.1-.5.1-1 .1-1.4.9.6 2.5.5 3.3.4 1-.1 1.9-.4 2.9-.6 3.3-.7 5.1-.1 8.2.6 5.6 1.4 11.2 1.5 17 1 .1 0 .1-.2 0-.2-6.5.2-12.2-.1-18.5-2.1-4.5-1.4-8.4.5-12.9-.4-.2-2.6-.9-4.5-1.3-7.2-.3-2.6 0-5.4.6-7.3-2.2.2-3.8 1-3.8 2.3l-.1 3.6c0 5.3 1.2 9.2.2 14.7l-.1 5.6c0 2 2 3.6 3.5 3.6l10.9.1c5.9.6 11 1.2 20.8 0 .7-.1 8.8.2 9.4.2l17-.6 16.4.3v-1.3c-.6.1-1.3-.1-1.8-.4zm-10.6 32.1c-1.9-.8-9.5-.2-13.2-.5.5-.1.9-.2 1.4-.3 1.2-.3 2.7-.7 3.5-1.6.1-.2.1-.5-.2-.5-1.2.1-2.2.8-3.3 1-1.3.3-2.6.4-3.8.7-1.7-.9-2.7-2.9-3.8-5.6-.9-2.1-.3-3.4.1-5 1.8-.1 3.7.6 5.5.5 2.7 0 5.2-.6 7.8.5.1 0 .1-.1.1-.1-2.4-1.3-4.8-.8-7.4-1-2.1-.1-3.9-.9-5.8-.8.1-.6.1-1.2.1-1.9-.3-3.2-1-8.6-.3-10.5.2-.6.2-1.2 0-1.7-1.4.4-2.3 1.1-2.3 2l-.2 3.6c0 5.3-1 10.2.2 14.7l-.1 5.6c0 2 2 3.6 3.5 3.6l10.9.1c5.7.9 10.4.9 19.7-.2v-2.8c-1.7 0-2.6.9-4.1 1.1-2 .3-6.1 0-8.3-.9zm7.6 32.4c0-.8-21.2.3-24.4 0s-4.5-.3-6.5-.8-26.9.8-30.6 1.4-7.7-1.4-8.5-3.1c-.8-1.5.3-5.4.3-8.7.3.2.6.4.9.5.6.2 1.3.3 2 .2 1.8-.2 3.4-1.3 5.2-1.4.1 0 .2-.2 0-.2-1.8-.2-3.4.3-5.1.6-1.2.2-2-.4-3-.8v-.1c-.3-3.4-1.1-7.1-2-9.9-.4-1.3-.7-2.4-1.1-3.2-.2.3-.4.6-.4 1l-.2 3.6c0 5.3 1.2 9.2.2 14.7l-.1 5.6c0 2 2 3.6 3.5 3.6l10.9.1c5.9.6 11 1.2 20.8 0 .7-.1 8.8.2 9.4.2l17-.6 16.3.3V96h-.3c-1.8.4-4.3-.4-4.3-1.3zm.2 32.3c-.8-.5-2.1-.2-2.7.5-.2.2-.1.3.1.4-6.8.5-14.9 1.5-16.2 1.3-2.1-.3-6.4-2.9-6.4-6.4v-.6c1.1.2 2.2.8 3.2.9.6.1 1.2.1 1.8-.1 1-.3 2-1.4 3.3-.8.2.1.4-.1.3-.3-1.1-1.9-3.4.1-4.9.1-1.4.1-2.6-.5-3.9-.6-.4-2.2-1.8-2.7-2.8-5.7-1.2-3.5.3-5 .3-9.1 0-2.2-.5-3.4-1.1-4.2-.3.3-.6.7-.6 1.1l-.2 3.6c0 5.3-1 10.2.2 14.7l-.1 5.6c0 2 2 3.6 3.5 3.6l10.9.1c5.7.6 10.4.5 19.7-.6v-3.1c-1 0-2.4 0-3.9.1 0-.1-.2-.3-.5-.5zm-2.1.9c.5-.1.9-.4 1.4-.4.2 0 .4.1.6.2-.7.1-1.3.1-2 .2zm-9.2 34.7c-.6-.2-2.6-.3-5-.4 0-.8 0-1.5-.1-2.2 0-.1-.2-.3-.3-.3-2.5-.5-5.9 0-7.9 1.6-.2.1 0 .4.2.3 1.5-.4 2.9-1 4.4-1.2.6-.1 1.5-.2 2.1 0 .5-.1.8.1 1 .7.1.4.1.7.2 1.1-5.7-.2-13.9-.1-15.4.2-.4.1-1.3.2-2.4.2-.8-.1-1.7-.1-2.4.1h-.1c-4.5.2-10.5.4-11.7.2-1.7-.2-2.6-.9-6.1-1.7s-12 .4-13.9 0-1.5-2.8-1.5-5.9c0-2.2.4-3.3.9-5 .6.5 1.4.8 2.1.9s1.7 0 2.5-.4c.4.1.8.2 1.2.2 1.9.1 3.9-.4 5.8-.3 2.7.1 5.3.6 8 .9.3 0 .4-.5.1-.5-3.3-1-6.8-1.7-10.2-1.5-2.8.1-3.9.7-6.7-1.1-.7-.4-1.3-1-2-1.5.2-2.9-1.5-4.5-2.1-6.6-.5-1.8-1.1-3.2-.8-5-1.1.4-1.9 1-1.9 1.9l-.2 3.6c0 5.3 1.2 9.2.2 14.7l-.1 5.6c0 2 2 3.6 3.5 3.6l10.9.1c5.9.6 11 1.2 20.8 0 .7-.1 8.8.2 9.4.2l17-.6 16.4.5v-1c-.7-.1-1.3-.3-1.8-.5-1.7-.9-12-.2-14.1-.9zm-57.5-14.4c.9.9 2 1.9 3.1 2.4-.5.1-1-.1-1.5-.2-.8-.2-1.3-.6-1.9-1.1.1-.2.2-.6.3-1.1zm66.4 47c-.7-.1-1.5-.1-2.2-.3-.9-.2-1.7-.6-2.4-1.2-.3-.3-.8.2-.5.5.2.2.5.4.8.6-3.2 0-6.9 1.2-9.5 1.3-1.5.1-3.3-.5-4.8-1.5.3-.1.6-.1.8-.2.3-.1.3-.6-.1-.6-.6 0-1.2 0-1.8.1-1.3-1.1-2.2-2.4-2.6-3.8-.7-3.4-1.4-2-2.5-6.1s-.5-4.3.2-9.4c.5-3.6-.4-4.3-1.4-5.4-.7.4-1.2.9-1.2 1.6l-.2 3.6c0 5.3-1 10.2.2 14.7l-.1 5.6c0 2 2 3.6 3.5 3.6l10.9.1c5.7.6 10.4.5 19.7-.6v-1.6c-2.6-.2-5-.4-6.8-.7.2-.2.2-.3 0-.3zM25.7 97.8c1 .2 2.3-.1 3.5-.7-1.7-.2-4-.7-6.2-1 0-.1-.1-.2-.2-.2-1.1-.6-1.7-.6-3-.6-2.6 0-4.3-1.3-6.5-2-3.1-1-6.4-.2-9.6-.1-.4 0-.5.6-.1.7 3.5.6 7-.7 10.3.9.5.3 1 .6 1.6.9-3.7.1-10 .3-15.5.5v1.6l8.8-.3 16.9.3zm-.3 33.4c.7-.1 8.8.2 9.4.2l17-.6 16.8.4c1.1.2 2.7-.2 3.9-1-1.5-.4-3.3-.9-3.9-1.1-.7-.2-4.4-1-7.7-1.2-1.2-1-2.6-1.4-4.5-1.4-4 .2-7.4-1.6-11.5-1.3-.3 0-.3.4 0 .4 1.8.2 3.6.2 5.3.7 1 .3 2.3 1 3.4 1.2 1.1.2 2.2-.1 3.3 0 .5 0 1.1.1 1.6.2-1 .1-1.9.3-2.5.7-2.6 1.8-4.7.3-8.8.3s-15.2-.6-15.2-.6-11.4.3-15.8.9c-1.1.1-2.8.2-4.8.3.3-.3.5-.6.8-.8 2.5-2.3 4.5-2.4 7.8-2.2 4.9.3 9-1.6 13.9-2.1.1 0 .1-.2 0-.2-2.7.2-5.2.6-7.8 1.3-3.2.9-6.2-.1-9.5-.1-4.3 0-3.9 1.6-6.2 4.1-3.4.1-7.3 0-10.5-.2v1.8l4.6.1c6 .8 11.1 1.4 20.9.2zm.3 33.8c1.2.2 2.9-.2 4.1-1.1-1.5-.2-4.2.3-5.5-.2-1.7-.6-5.2-.6-8.3-.2-2 .3-9.6-.1-16-.7v2.1l8.8-.3 16.9.4zm22.8 30.8c-.6-.1-1.5-.1-2.6-.2-.3-1.5-.9-3.2-2.2-3.6-.5-.2-.9.1-1.4.1-1 .1-1.9 0-2.8-.2-1.3-.3-2.5-.7-3.9-.6-.2 0-.2.3 0 .3 1.9.4 3.6 1.4 5.5 1.6.5.1 1.1-.1 1.5-.1 1.5.3 2.1 1.2 2.4 2.4-5.8-.4-15.4-.8-19.5-.8-5.1 0-20.8.3-25.4.3v3.2l4.6.1c5.9.6 11 1.2 20.8 0 .7-.1 8.8.2 9.5.2l17-.6 16.8.4c1.1.2 2.7-.2 3.9-.9-2-.1-4.8-.2-6.1-.2-2.2 0-14.3-1-18.1-1.4zM25.7 32.1c1.3.2 3.2-.3 4.5-1.3-1.4-.3-3.4-.6-4.8-.9-3.4-5.6-12.7-4-18.1-5.5-.1 0-.1.1-.1.1 2.5 1 5.1.9 7.7 1.5 2.8.6 7 1.3 9.1 3.6-2.3-.1-6.6.6-9.5-.3-2.1-.6-9.5-.6-14.5-.8V32l8.8-.3 16.9.4zm-.3 33.3c.7-.1 8.8.2 9.4.2l17-.6 16.8.4c.9.2 2 0 3.1-.5-2-.1-4.3-.6-5.9-.8-2.5-.3-7.3-1.3-10.8-1.9-.4-.1-1-.1-1.8-.1 1.1-.3 2.2-.2 3.4-.3.4 0 .5-.5.1-.7-1-.4-2.1-.3-3.1-.1-.5.1-1 .3-1.5.5-.3.2-.7.4-1 .6-6.5.3-17.9 1.7-19.9 2-2.5.3-18.5-.3-21.7-1.3-1.3-.4-3.7-.5-6.3-.7 4.4-1.9 9.8-.1 14.5-.3 4.2-.2 8.4-.8 12.4-2.2.2 0 .1-.3-.1-.2-6.9 1.7-13 1.8-20.1 1-3.2-.4-5.4-.3-8 1.6-.6.1-1.3 0-1.9 0v3.4l4.6.1c5.9.5 11 1.1 20.8-.1zM155.5 29c3.6-.9 6.7-1.5 10.4-.8 2.3.5 4.3 1 6.6.6.1 0 .1-.2 0-.2-3.4.4-6.6-1.2-9.9-1.4-2.5-.1-5 .2-7.3 1.4-.1.2 0 .5.2.4zM55.2 12c.9-.5 1.8-.7 2.8-.8.1 0 0-.1 0-.1-1 0-2 .3-2.9.8-.1 0 0 .1.1.1zm5.5-.8c1-.1 1.9-.1 2.9-.3.1 0 .1-.1 0-.1-1 0-1.9.2-2.9.3-.2-.1-.2.1 0 .1zm31.1 39.5c.5 0 .5-.8 0-.8-.9 0-2 .2-2.6.9-.2.2 0 .5.3.4.8 0 1.5-.4 2.3-.5zm-6.8 5c-.2 0-.3 0-.4.1-.2.1-.2.4 0 .5.1.1.2.1.4.1.4 0 .4-.6 0-.7zm36 1.7c.1 0 .1-.1.2-.1.1-.1.1-.2 0-.3-.1 0-.1-.1-.2-.1-.6-.5-.6.9 0 .5zm8.9 1.4c.1-.2-.1-.3-.3-.2-.2.1-.3.3-.6.1-.3-.2-.6.3-.3.5.5.1 1.1.1 1.2-.4zm26-6.9c.2-.1.2-.4 0-.5-.2-.1-.3-.1-.5-.1-.6-.1-.6.8 0 .7.2 0 .3 0 .5-.1zm28.2 7.5c.2-.1.2-.3 0-.4-.4-.1-.7-.1-1.1-.1-.4 0-.4.6 0 .6s.8 0 1.1-.1zm6.8.2c.1 0 .1-.2 0-.2-.7-.2-1.4-.1-2.1-.1-.3 0-.3.5 0 .5.7-.1 1.4 0 2.1-.2zM22.2 24c2.6.9 4.7-1.3 6.9-2.2.2-.1.1-.3-.1-.3-2.3.6-4.2 2.9-6.7 2.1-.3-.1-.4.3-.1.4zm5.8-8.4c.3 0 .3-.5 0-.5-.4-.1-.4.5 0 .5zm14.1 43.8c.2 0 .2-.4 0-.4-.3 0-.3.4 0 .4zm11.8-.5c.4-.2.9-.4 1.3-.6.1-.1 0-.2-.1-.2-.5.1-.9.3-1.3.5-.1.1-.1.4.1.3zm-14.8-9.5c-7-.4-14.1-.5-21.1-1.3-5.1-.5-7.7-1.6-12.3 1.1-.1.1 0 .2.1.2 4.7-2.6 10.4-.5 15.6-.4 5.9.1 11.8.4 17.7.6.2 0 .2-.2 0-.2zm15.3-5.2c-.6-.1-1.2-.1-1.9-.2-.4 0-.4.6 0 .6.6 0 1.3 0 1.9-.2.1 0 .1-.2 0-.2zm8.1 2.9c.2 0 .2-.3 0-.3s-.2.3 0 .3zM45 51.5c.2 0 .2-.2 0-.2s-.2.2 0 .2zm-17.6 1.4c.2 0 .2-.4 0-.4s-.2.4 0 .4zm28 29.3c.2 0 .2-.2 0-.2-1.1-.4-2.2-.6-3.4-.9-.3-.1-.4.4-.1.4 1.2.3 2.3.6 3.5.7zm18.7-.1c.2-.1.1-.4-.1-.4-.9-.1-1.8.2-2.6.4-.2.1-.2.5.1.4.8 0 1.7 0 2.6-.4zm11.4 1.6c.2 0 .2-.3 0-.3s-.3 0-.5-.1c-.3 0-.3.5 0 .5.2 0 .3-.1.5-.1zm20.9 6.9c-.3 0-.3.5 0 .5s.3-.5 0-.5zm-13.1 2.3c.3 0 .3-.5 0-.5-.5 0-1.1 0-1.6.1-.2 0-.2.3 0 .3.6.2 1.1.1 1.6.1zm44.6-10.4c-.3-.1-.4.4-.1.4.5.1.9.2 1.4.2.2 0 .2-.3.1-.4-.6 0-1-.1-1.4-.2zm-8.7 11.3c-.3 0-.3.5 0 .5.7 0 1.4.1 2.1-.1.2 0 .2-.3 0-.3-.7-.2-1.4-.2-2.1-.1zm22.9-3.2c-2.3-.1-4.5.1-6.6 1.1-.3.2-.1.8.2.6 4.9-2.1 10.3.2 15.3-.4.4 0 .5-.6.1-.7-2.8-.6-6-.5-9-.6zm20.5 2.7c1.2.1 2.4.4 3.6.6.2 0 .3-.2.1-.3-1.1-.6-2.5-.8-3.8-.8-.3-.1-.3.5.1.5zm20.9-6.7c.2 0 .2-.3 0-.3-1.2-.1-2.4-.3-3.6-.3-.2 0-.2.3 0 .3 1.1.2 2.4.2 3.6.3zm-9.4-.5H183c-.1 0-.1.1 0 .1h1.1c.1.1.1-.1 0-.1zm-10 0c-5.1.5-10.1 0-15.1-.5-.3 0-.3.4-.1.5 5 1.1 10.2 1 15.2.5.3-.1.3-.5 0-.5zm-157.2 3c-.2.1 0 .4.2.3.8-.4 1.6-.5 2.5-.5.1 0 .2-.2 0-.2-.9-.4-1.9-.1-2.7.4zm6.6-10.5c-.1 0-.1.2 0 .2 1.4-.1 2.8-.2 4.2-.1.2 0 .2-.3 0-.3-1.4-.1-2.9-.1-4.2.2zm-18 36.5c-.2 0-.2.3 0 .3 1.1 0 2.3 0 3.4-.1.1 0 .1-.2 0-.2-1.1-.1-2.3 0-3.4 0zm5.4 1.2c.3.9.8 1.9 1.6 2.4.1.1.1-.1.1-.1-.6-.7-1.2-1.4-1.5-2.4 0-.2-.3-.1-.2.1zm3.8 2c-.2.1 0 .4.2.3 3.7-1.7 6.9-2.4 10.9-2.6.2 0 .2-.3 0-.3-3.6-.5-7.9.6-11.1 2.6zm99.6.4c.1 0 .1-.1 0-.2h-.5c-.1 0-.1.2 0 .2h.5zm11.6 6.8c1-.3 2-.2 3.1-.2.2 0 .3-.3.1-.3-1-.5-2.3-.3-3.3.1-.4 0-.3.5.1.4zm8.8.9c.3 0 .3-.4 0-.4s-.3.4 0 .4zm3.6.2c.2 0 .2-.3 0-.3s-.2.3 0 .3zm2.6-13.8c3.1.3 5.9 1.8 9 .9.3-.1.3-.6-.1-.6-2.9.3-5.5-.6-8.3-.8-3-.2-5.9 1.2-8.9.5-.4-.1-.6.4-.3.6 3 1.9 5.5-.9 8.6-.6zm-15.7.5c-2.7.6-5.3.8-8 1-.2 0-.2.3 0 .3 2.7 0 5.5-.4 8.1-1 .2 0 .1-.4-.1-.3zm54.4 5.2c.2 0 .2-.3 0-.3s-.2.3 0 .3zm.6-3.8c-.3 0-.5.1-.8.1-.2 0-.2.3 0 .3.3 0 .5.1.8.1.3 0 .3-.5 0-.5zm-6.8 9.7c.4 0 .4-.6 0-.6s-.4.6 0 .6zm-1.9-5.2c-.2 0-.2.3 0 .3s.2-.3 0-.3zm11.6 4.2c.2 0 .2-.3 0-.3-.2-.1-.4-.1-.6-.1-.3 0-.3.5 0 .5.2 0 .4 0 .6-.1zm4.6 0c-.2 0-.2.3 0 .3s.2-.3 0-.3zm8.2 1.7c-.4 0-.4.6 0 .6.3 0 .3-.6 0-.6zM158.6 150c.6.1 1.3.2 1.9.2.2 0 .2-.3 0-.3-.6-.2-1.2-.3-1.9-.3-.2-.1-.2.4 0 .4zm7.7 1.1c.1-.1 0-.2-.1-.2-.5.2-1 .3-1.5.2-.2 0-.2.3 0 .3.6.1 1.2 0 1.6-.3zm3.9-.1c-.3 0-.3.5 0 .5s.3-.5 0-.5zm-103.7 2.1c.2-.1.3-.2.5-.4.1-.1 0-.3-.2-.3-.2.1-.4.1-.6.2-.2.1 0 .7.3.5zm8.5-1.9c-.4 0-.4.6 0 .6s.4-.6 0-.6zm26.7 37.5c-.3 0-.3.6 0 .5 1-.1 2.2-.1 3.2-.4.2-.1.2-.3-.1-.4-1 0-2.1.2-3.1.3zm18.5 5.3c-.2.1-.2.4 0 .4.2.1.4.1.6.1.3 0 .3-.6 0-.5-.2-.1-.4-.1-.6 0zm6.1-.2c.2 0 .2-.3 0-.3-.5-.1-1-.1-1.6-.1-.3 0-.3.4 0 .4.5.1 1.1.1 1.6 0zm8.6-.2c-.3 0-.3.5 0 .5s.3-.5 0-.5zm46.7 1.6c.8-.2 1.8-.2 2.4-.7.1-.1 0-.2-.1-.2-.8-.2-1.7.2-2.5.4-.4 0-.2.6.2.5zm-161.5-5.3c-.1 0-.1.2 0 .2 3-.8 6.1-.4 8.8 1.1.2.1.4-.2.2-.3-2.8-1.7-5.9-2.1-9-1zm-15-5.2c-.4-.1-.6.6-.2.6 2.9.7 6.1.8 8.9-.5.3-.1.1-.6-.2-.5-3 .5-5.6.9-8.5.4zm25.5-7.2c-.5 0-1.1.1-1.6.2-.2.1-.1.4.1.4l1.5-.3c.2 0 .2-.3 0-.3zm13 1.4c-.2.1-.1.4.1.4 1.8-.4 3.5-.9 5.2-1.7.1-.1 0-.2-.1-.2-1.7.4-3.4 1-5.2 1.5zm11.1-1.9c-.9-.1-1.8-.1-2.7-.1-.3 0-.3.4 0 .4.9 0 1.8.1 2.7-.1.1.1.1-.1 0-.2zm4.9-.3h.3c.1 0 .1-.1 0-.1h-.3c-.1 0-.1.1 0 .1zm4.2 5.7c.3 0 .3-.4 0-.4-.3-.1-.3.4 0 .4zm-10 6.6c.1 0 .1-.1 0 0 0-.1 0 0 0 0zm-24.3-8.7c.3 0 .3-.5 0-.5s-.3.5 0 .5zm-13.3-24.6c.3 0 .3-.5 0-.5s-.3.5 0 .5zm1.8-.5c.3 0 .3-.5 0-.5s-.3.5 0 .5zm-7.6 3.4c.3 0 .3-.5 0-.5s-.3.5 0 .5zm10.4-9.7c.1 0 .1-.1.2-.1.1-.1.1-.2 0-.3-.1-.1-.1-.1-.2-.1-.6-.3-.6.8 0 .5z" fill="#21837f" stroke-width="none" opacity="1"></path><path id="SvgjsPath13212" d="M65.5 71.8c-3.3-1.8-5.6-.7-9.1-.7-4.1 0-8-.9-12.2-.2-.2 0-.2.4 0 .4 2-.2 3.9-.4 5.9-.2 1.9.2 3.7 1.1 5.5 1.3 3.4.3 6.2-1.4 9.7-.4.2 0 .3-.2.2-.2zm21.3-1.4c-5.7.6-11.2 1.2-16.9 1.2-.2 0-.2.2 0 .2 5.6.1 11.4-.2 16.9-1.3.1 0 .1-.1 0-.1zm12.6-1.2c-1.6-.6-3.3-.4-4.8.2-.1 0 0 .1 0 .1 1.6-.6 3.1-.5 4.8-.1 0 0 .1-.1 0-.2zm14.3 1.3c-1.4-.9-3.1-.8-4.7-.7-.2 0-.2.4 0 .4 1.2 0 2.5 0 3.6.4 1.3.5 1.8 1.4 2.2 2.6.1.2.3.2.4 0 .2-1.1-.6-2.1-1.5-2.7zm3.2 7.7c0-.2-.3-.2-.3 0v1.2c0 .1.2.1.3 0 .1-.4 0-.8 0-1.2zm-8.3 24.7c-5.5-.5-11.1-.2-16.6-.1-3.7.1-8.1-.6-11.5.9-.2.1-.1.5.2.4 4.1-1.7 9.9-.5 14.3-.5 4.6 0 9.2.2 13.7-.2.2.1.2-.5-.1-.5zm50.3 1.4c-6.2-1.2-12.6-1.3-18.9-1.6-7.2-.3-14.4-.7-21.6.1-.2 0-.2.4 0 .3 6.9-.6 13.7-.7 20.6-.2 6.6.5 13.1 1.8 19.8 1.7.2.1.3-.2.1-.3zm1.3 2.8s0 .1 0 0c.1.1.1 0 0 0zm.2 0c0-.1-.1-.1-.1 0 .1 4-.3 8.1-.2 12.1 0 .1.1.1.2 0 .5-3.9.3-8.1.1-12.1zm35.6-4c-2.5 0-5.1.3-7.6.1-1.9-.2-3.8-1-5.7-1.1-3.9-.2-7.3.5-11.2-.2-.4-.1-.5.5-.2.6 4.4 1.3 9.1 1 13.6 1.3 3.6.2 7.4-.1 11-.3.3-.1.3-.4.1-.4zm-36-33.2c-6.2.2-12.5.6-18.7.1-4.8-.4-10.2-2.5-14.9-.8-.2.1-.1.4.1.3 4.9-1.5 11.5 1.3 16.7 1.6 5.6.3 11.3-.2 16.8-.9.1 0 .2-.3 0-.3zm31.7-32.4c-3.1-2-7.1-.2-10.6-.6-3.8-.4-7.1-1-11 0-.3.1-.2.5.1.5 3.8-.6 7.1 0 10.8.5 3.4.4 7.4-1.2 10.6 0 .2 0 .3-.3.1-.4zm-76.6-.3c-11 1.4-21.9-.6-32.9 0-.3 0-.3.5 0 .5 11 .2 22.2 2.4 33-.2.1 0 .1-.3-.1-.3zm40.1-.3c-7.5.5-14.8-1.3-22.4-.2-.2 0-.1.3 0 .3 5.1-.6 9.4-.2 14.4.5 2.4.3 11.8-.5 11.9 2.8 0 .3.4.4.5.1.8-3.1-1.8-3.6-4.4-3.5zM115 5.1c-3.9-2.9-9.1 1-13.3 0-.2 0-.3.2-.1.3 2.8 1.2 5 .4 7.9-.1 3.1-.5 5.8.2 6.7 3.6.6 2.2.5 4.8.7 7 0 .3.5.3.5 0-.2-3.3.6-8.6-2.4-10.8zm-21.7-.9c-3.8 0-7.7-.1-11.5-.2-.2 0-.2.2 0 .2 3.9.3 7.7.2 11.6.1.1.1.1-.1-.1-.1zm-35.6 23c-2.4-.5-4.8-.6-7.2-.5-1.6.1-10.7 2.2-9.6-1.8.1-.2-.3-.4-.4-.2-1 1.9.5 3.5 2.4 3.8 1.5.2 3-.4 4.5-.6 3.4-.6 6.8-.6 10.3-.5.1.2.1-.1 0-.2zm2.8.4c-.4 0-.4.6 0 .6s.4-.6 0-.6zm7.3 1.4c-2-.5-4.1-.8-6.1-1-.1 0-.2.2 0 .2 2 .5 4 1 6.1 1.1.1.1.2-.2 0-.3zm63.5-.8c-1.1-.2-2.4-.1-3.2-.9-1-1-.6-2.4-.3-3.5.3-1.3.6-2.6-.1-3.9-.1-.2-.5 0-.4.2 1 2.2-1.2 4.5-.4 6.7.6 1.7 2.7 2.2 4.3 2 .3 0 .5-.5.1-.6zm13-8.5c-2.5-.4-5.1-1.4-7.6-1.6-2.8-.2-7.1 2.3-9.5.5-.2-.1-.4.2-.2.3 1.6 1.4 3.2.8 5 .3 4.5-1.3 7.9.5 12.3.7.1.1.1-.1 0-.2zM126.6 3.6c0-.2-.3-.4-.4-.1-.5 2.6-.5 5.1.3 7.6.1.2.3.1.3-.1-.4-2.5-.6-4.9-.2-7.4zm-96.9.9c-2.5-2-5.2-1.5-8.2-1.3-4.8.5-9.4.3-14.1-.2-.1 0-.2.2 0 .3 3.4.7 6.7 1.1 10.2 1.1 4.1 0 7.9-.9 11.9.6.2 0 .4-.3.2-.5zm.5 6.1c-.1-1.5.1-3.1-1-4.2-.1-.2-.4.1-.2.2 1.2 1.6.8 4.7.9 6.6.1 1.8.1 3.6.3 5.3 0 .1.2.1.2 0 .2-2.6-.1-5.3-.2-7.9zm.3 14.7c0-.2-.4-.2-.4 0 .1 1 0 1.9-.1 2.9 0 .1.2.1.2 0 .4-.9.4-1.9.3-2.9zm42.9 16.2c-.1-2.2-1-4.1-3.4-3.6-.2 0-.1.3 0 .3 3.9 1.1 2 9.4 2.2 12.2.2 2.7.7 5.1 1.7 7.5.1.1.2 0 .2-.1-2.1-5.5-.5-10.7-.7-16.3zm-4.7-3.8c-2.1.1-4.2 0-6.3-.1-.2 0-.2.3 0 .3 2.1.4 4.2.3 6.3 0 .2 0 .2-.2 0-.2zm-35.4-1.3c-3.4-.8-6.8-.3-10.3 0-4.2.3-8.4.6-12.5 1.2-.2 0-.2.3 0 .3 7.3-.2 15.5-2.6 22.7-1.1.3 0 .4-.4.1-.4zM17.7 46.7c-2.9 1.2-5.8-1.1-8.7-.3-.1 0-.1.2.1.2 2.9-.8 6 1.9 8.8.3.1-.1 0-.3-.2-.2zm6.9 22.8c-6.8.3-12.3 1.3-18.9-1.2-.2-.1-.4.3-.2.4 2.8 1.2 5.7 2 8.8 2.3 2.7.2 13.1-1.7 14.4 1.7.1.2.5.2.5-.1 0-2.7-2.2-3.2-4.6-3.1zm5.9 9.9c0-.3-.4-.3-.4 0 0 1-.1 2.1 0 3.1 0 .2.3.2.3 0 .2-1 .1-2.1.1-3.1zM53.4 104c-6.5-1.7-13.3-1.4-19.9-1.4-.2 0-.2.2 0 .2 6.7 0 13.2.4 19.8 1.5.2.1.3-.2.1-.3zm.8 24.2c-7.7.5-15.5-1.1-23.2-1.3-.2 0-.2.3 0 .3 7.3 1 16 2.8 23.3 1.3.1-.1.1-.3-.1-.3zm18.1-19.3c.2-2.2 1.1-4.8-1.7-5.3-.3-.1-.5.3-.2.5 2.3 1.5.9 8.9 1.2 11.5.3 3.4.9 6.7 1.6 10.1 0 .1.2.1.2 0-.8-5.6-1.6-11.2-1.1-16.8zm33.3 8.2c-3.7-3.4-7.5-3.4-12-1.8-.3.1-.2.6.1.4 2.2-.7 4.4-1.5 6.7-1 1.8.4 3.3 1.7 5 2.5.2.2.3 0 .2-.1zm15.3 4.2c-.5-1-1.6-1.2-2.6-1-.7.2-1.4.6-2 .9-1.4.7-2.6 1.1-4.2 1.2-.3 0-.3.5 0 .5 1.2 0 2.3-.2 3.4-.7 1.7-.7 3.3-2.2 5-.6.3.2.5 0 .4-.3zm37.4 15.8c-5.6-.4-10.5 2.8-16 1.9-5.4-.9-10.6-1.9-16.1-2.4-.3 0-.3.4-.1.5 6 .9 12.1 2.9 18.1 3.4 1.3.1 2.4-.1 3.6-.4 3.6-1.1 6.5-2.1 10.4-2.3.5-.2.5-.7.1-.7zm30.4-1.4c-6.1 0-13.7-.4-19.6 1.5-.2.1-.1.4.1.4 6.1-1.9 13.2-1 19.5-1.6.2 0 .2-.3 0-.3zm-61.1 24.5c-.8 0-1.2-.3-1.2-.9 0-.3-.1-.5-.1-.8-.1-.4-.1-.9-.1-1.3-.1-.9-.1-1.8-.1-2.7 0-.2-.3-.2-.3 0-.1 1.2-.1 2.4 0 3.6.1.7 0 1.8.5 2.4.4.6 1.5.7 1.6-.2-.1-.1-.2-.2-.3-.1zm36.7-.8c-2.9.3-5.8 1-8.6 1.5-3.6.7-6.6.3-10.2-.2-.2 0-.4.3-.1.4 2.5.4 5.1 1.1 7.6.9 3.7-.3 7.7-1.2 11.3-2.2.3-.1.3-.4 0-.4zm-94.1-22.8c-5.6-.1-10.8 1.8-16.3.2-4.9-1.4-9.8-1-14.8-.6-.1 0-.1.2 0 .2 3.2-.1 6.5-.4 9.7-.2 3.1.2 5.3 1.9 8.2 2.4 3.9.7 9.5-.6 13.3-1.6.2 0 .1-.4-.1-.4zm45.6 0c-6.7-.7-13.4-.6-20.1-1-6.1-.3-11.6.9-17.6 1-.2 0-.2.3 0 .3 5.9-.1 11.6-1.2 17.6-.8 6.7.4 13.4 1.2 20.1 1.3.5 0 .5-.7 0-.8zm1.7 10c-.1-.2-.3-.3-.4-.5-.4-.8-.3-1.4-.1-2.3.4-1.8.5-3.2-.5-4.9-.2-.3-.6 0-.5.3.6 1.1.8 2.4.4 3.6-.2.7-.8 1.4-.9 2.1-.1 1.2 1.4 1.7 1.3 3 0 .3.3.3.5.1.4-.5.4-.8.2-1.4zm.2 4.5c0-.3-.4-.3-.4 0 0 1.1-.1 2.3.1 3.4 0 .2.3.2.3 0 .1-1.1 0-2.3 0-3.4zM61 153.5c-2.8-.3-2.3-.8-4.9-2.9-.2-.2-.5-.8-.8-1.1-3.4-2.8-13 2.4-15.5-1.7-.1-.2-.4 0-.3.2 2.5 4.9 10-.1 14.1 2 2.1 1.1 1 2.4 2.7 3.5 1.2.8 3.5.4 4.8.3.1 0 .1-.3-.1-.3zm10.1 1.6c-1.6-.1-3.2.1-4.8.2-.3 0-.3.4 0 .4 1.6-.1 3.3-.1 4.8-.4.2-.1.1-.2 0-.2zm21.3-8.7c-1.6-.2-3.2-.1-4.8-.1-.3 0-.3.4 0 .4 1.6 0 3.2.1 4.8-.1.2 0 .2-.2 0-.2zm-69.7-8.8c-3.3-1.1-6.2-.6-9.6-.4-4 .2-7.8-.3-11.6-1.6-.2-.1-.4.3-.2.4 7.1 3.1 13.8 1.5 21.3 2 .2 0 .3-.3.1-.4zm4.3-.1c-.2 0-.3.4-.1.4 1.4.2 2.3 1.4 2.5 2.8 0 .1.2.1.2 0 .4-1.6-1.1-3.1-2.6-3.2zm3.2 6.8c0-.2-.3-.2-.3 0-.1 1.5-.4 3.2-.1 4.6 0 .2.4.2.4 0 .4-1.4.1-3.1 0-4.6zM71.8 173c-.1-.4-.6-.3-.6.1-.3 4.4.1 8.9.2 13.3 0 1.7.7 4.8.1 6.4-1.2 3.1-4.3 2.6-6.8 2.8-.2 0-.2.3 0 .3 4-.1 7.5 1.2 7.8-3.1.3-6.4.4-13.6-.7-19.8zm-.8-3.6c-2.5-.7-5.3 0-7.8.2-2.8.3-5.5.6-8.3 1.1-.2.1-.2.4.1.4 5.3-.1 10.7-1.4 16-1.3.2.1.2-.3 0-.4zm-24.1.2c-5.4-.9-11-1.3-16.4-.8-6.1.6-11.8 2.4-18 2.3-.2 0-.2.2 0 .3 4.8.5 9.5-.5 14.3-1.2 6.8-1 13.2-1.1 20-.2.2 0 .3-.4.1-.4zm6.6 10.5c-1.9.2-3.7.6-5.6.9-.2.1-.1.4.1.4 1.8-.3 3.7-.6 5.5-1.1.2 0 .1-.2 0-.2zm39.2 9.6c-1.6-2.5-5-3.6-7.9-2.8-.3.1-.2.5.1.5 2.9-.4 5.3.5 7.4 2.5.3.1.5 0 .4-.2zm11.5 1.7c-1.4-.1-3 .3-4.4.5-.3 0-.2.6.1.5 1.4-.2 3-.2 4.4-.7.1 0 .1-.3-.1-.3zm7.2-.3c-.2.1-.5.1-.7.2-.2.1-.1.3.1.3.2-.1.5-.2.7-.3.1-.1 0-.3-.1-.2zm17.1-4c-1.3-.9-3-1-4.5-.7-.3.1-.2.6.1.5 1.5-.3 2.9-.1 4.3.4.1.1.2-.1.1-.2zm7.3 1.6c-.7 0-1.4 0-2.2-.1-.2 0-.2.3 0 .3.7 0 1.4 0 2.2-.1.2 0 .2-.1 0-.1zm8 .4c-.6.1-1 .2-1.6.1-.3-.1-.5.4-.1.5.6.1 1.3.1 1.9-.2.1-.2 0-.4-.2-.4zm5.1-8.1c-.3 0-.3.5 0 .5s.3-.5 0-.5zm-64.4-10.8c-1.1-.8-2.4-.9-3.8-.7-.3 0-.2.4.1.4 1.2-.2 2.4.1 3.6.5.1.1.2-.1.1-.2zm48-.1c-2.8-.9-5.2-.4-8.1.1-4.4.8-8.4.6-12.8.7-3.3.1-6.4 1.4-9.8 1.3-3.3-.1-6.2-.9-9.5-.3-.2 0-.1.3 0 .3 3.2-.2 6.2.6 9.4.8 3.2.2 5.8-.9 8.9-1.1 3.6-.3 7.1.4 10.7-.1 3.7-.6 7-1.6 10.9-1 .6.2.8-.5.3-.7zm25.4-.2c-3.6-.9-7-.3-10.6 0-3.2.3-6.3-.8-9.3.4-.2.1-.1.5.1.4 3.2-.8 6.5.2 9.8.1 3.3-.2 6.6-.1 9.9 0 .4-.1.5-.7.1-.9zm1 1.6c-.2-.2-.5.1-.4.3.4.5.6 1 .8 1.5.2.5.2 1 .3 1.6.1.2.4.2.4 0 .3-1.3-.3-2.6-1.1-3.4zm10.8-.5c-.5 2.7-.8 5.4-.2 8.1 0 .2.4.2.4-.1.1-2.7 0-5.3.4-7.9 0-.2-.5-.4-.6-.1zm.5 11.7c0-.3-.4-.3-.4 0-.1 1 .3 1.9.8 2.7.7 1.2 1.2 2 1.2 3.4 0 .2.2.2.3.1 1.3-2-1.9-4.2-1.9-6.2zm20-12.2c-3.4-.3-6.8 0-10.3-.6-.3-.1-.4.4-.1.5 3.4.6 7.1 1.4 10.5.8.4 0 .2-.6-.1-.7z" fill="#49a29e" stroke-width="none" opacity="1"></path></g><g id="svga-group-humanwrap-move" transform="matrix(1,0,0,1,0,-6)"><g id="svga-group-humanwrap"><g id="svga-group-hair-back-move" transform="matrix(0.9986295346632305,0.052335957985880914,-0.052335957985880914,0.9986295346632305,7.725760441629689,-5.034878324756505)"><g id="svga-group-hair-back"><path id="SvgjsPath12844" d="M85.5 39.3s-26 4.5-33.6 29.6-.6 18.1-3.4 35.8.8 26.5 4.8 30.5c0 0-4.2 8.8 1.1 16.4 0 0-5.1 3.7-2.8 11.3 0 0-6.8 3.4-2.8 14.9 4 11.6 15.8 8.5 18.9 4.2 3.1-4.2 45.2-28.2 49.7-29.6s18.6-9.6 22.3-22.9c0 0 9-11.8 5.9-30.2 0 0 5.1-14.7.9-28.5s-13.3-22-21.2-22.3-34.4-6.2-34.4-6.2l-5.4-3z" fill="#3b3128" stroke-width="none" opacity="1"></path><path id="SvgjsPath12845" d="M57.7 65.3s-6 10.5-6.2 18.1 0 14.7-1.7 22.9 2 15 8.8 19.8c6.8 4.8 9.7 11.5 11.7 15.2s20.9 10.4 16.7-12.8c-1.5-7.9-24.4-54-25.2-57.1s-4.1-6.1-4.1-6.1zm77.6 21.2s7.1 11 6.2 21-2 20.1-7.6 27.2c-5.7 7.1-16.7 10.8-16.7 10.8l8.5-28.9 9.6-30.1z" fill="#332920" stroke-width="none" opacity="1"></path></g></g><g id="svga-group-humanbody-back"><path id="SvgjsPath12657" d="m168.5 219.5-1.7-21.5s.7-9-8.8-15.3-23.4-10.1-29.5-14.2c-6.1-4.1-9.2-4.5-9-16.9s.9-40.3.9-40.3H79.6s.7 27.9.9 40.3c.2 12.4-2.9 12.8-9 16.9-6.1 4.1-20 7.9-29.5 14.2S33.2 198 33.2 198l-1.6 21.5h136.9z" fill="#f6e4e2" stroke-width="none" opacity="1"></path></g><g id="svga-group-chinshadow-single"><path id="SvgjsPath12653" d="M80.4 155.4c5.9 5.8 12.6 9.3 19.6 9.3s13.7-3.5 19.6-9.3c-.1-1.1-.1-2.4-.1-3.8.2-12.4.9-40.3.9-40.3H79.6s.7 27.9.9 40.3c0 1.4 0 2.7-.1 3.8z" fill="#d7a19b" stroke-width="none" opacity="0.65"></path></g><g id="svga-group-humanbody-front"><path id="SvgjsPath12658" d="M73.8 175.9c5.1 2.9 11.8 5.2 17.6 5.7.4 0 .4-.6.1-.7-2.8-1.1-5.9-1.7-8.8-2.6-2.9-.9-5.8-2-8.8-2.7-.1-.1-.3.2-.1.3zm35.2 6.2c5.3-.6 11.3-3 15.9-5.8.3-.2.1-.6-.2-.5-2.6.9-5.2 2-7.8 2.9-2.6.9-5.4 1.5-8 2.5-.5.1-.5.9.1.9z" fill="#d7a19b" stroke-width="none" opacity="1"></path><path id="SvgjsPath12659" d="m168.4 219.4-2.1-21.4c0-2.2-.5-4.5-1.5-6.6-.9-2.1-2.3-3.9-3.9-5.5s-3.5-2.8-5.5-4c-2-1.2-4.1-2.2-6.2-3.1-4.2-1.9-8.6-3.6-12.9-5.4-2.2-.9-4.3-1.9-6.4-3-1.1-.6-2.1-1.2-3-1.9-1-.6-2-1.2-3-1.9s-2-1.5-2.8-2.6c-.8-1-1.3-2.2-1.7-3.4-.7-2.4-.8-4.8-.8-7.2 0-4.7.2-9.4.3-14.1.2-9.4.6-18.7.9-28l.6.6-20.4-.2-20.4-.1.3-.3.7 28c.1 4.7.3 9.3.4 14 0 2.4-.1 4.7-.8 7.1-.3 1.2-.9 2.3-1.6 3.3-.8 1-1.7 1.8-2.7 2.5s-2 1.3-2.9 2c-.9.6-1.9 1.3-3 1.9-2.1 1.2-4.2 2.1-6.4 3.1-4.3 1.9-8.6 3.6-12.8 5.6-2.1 1-4.2 2.1-6.1 3.2-2 1.2-3.8 2.4-5.4 4-1.6 1.6-2.9 3.4-3.8 5.4-.4 1-.8 2.1-1 3.1-.2 1.1-.4 2.2-.3 3.2v.2l-1.5 21.5-1-1.1 34 .1c11.3 0 22.7.1 34.1.2l34.2.3 34.4.5zm.2.2-34 .4-34.2.3c-11.4.1-22.9.2-34.4.2l-34.4.1h-1.1l.1-1.1 1.7-21.5v.1c-.1-5.1 2.2-9.8 5.7-13.3 1.7-1.7 3.8-3.1 5.8-4.3 2-1.2 4.2-2.2 6.3-3.2 4.3-2 8.7-3.7 13-5.4 2.1-.9 4.3-1.8 6.3-2.9 1-.5 1.9-1.1 3-1.8 1-.6 2-1.2 2.9-1.9.9-.6 1.8-1.4 2.4-2.2.7-.9 1.2-1.9 1.5-2.9.6-2.1.8-4.5.8-6.8 0-4.6-.1-9.3-.2-14l-.6-28v-.3h.3l20.4-.1 20.4-.2h.6v.6c-.1 9.3-.2 18.7-.4 28-.1 4.7-.2 9.4-.2 14 .1 2.3.2 4.6.8 6.7.3 1.1.8 2 1.4 2.9.6.8 1.4 1.6 2.4 2.2.9.6 1.9 1.3 2.9 1.9 1 .7 1.9 1.3 2.9 1.8 2 1.1 4.1 2.1 6.3 3 4.3 1.8 8.6 3.6 12.9 5.6 2.1 1 4.2 2.1 6.2 3.3 2 1.2 4 2.6 5.7 4.3 3.4 3.4 5.6 8.1 5.4 13v-.1l1.4 21.6zm-112.8-.4 1.9-13.8.1 13.8h-2zm88.6 0-1.9-13.8-.1 13.8h2z" fill="#c8837c" stroke-width="none" opacity="1"></path></g><g id="svga-group-clothes-single"><path id="SvgjsPath12818" d="M27.5 220c-1.4-8.2 1.3-23.2 1.8-26s3.9-6.8 3.9-6.8 1.2-2.6 5.1-6c4-3.5 15.4-6.4 15.9-7.6.5-1.2 2.7-2.3 2.7-2.3-1-4.2 2.1-7.8 3.6-11.4 1.5-3.6 4.9-5.6 4.9-5.6 3.7-6.2 12.5-7 12.5-7s.6 5.3.6 7.8-.1 6.1-.8 7.7-.8 2.3-.8 2.3.2 3.2 5.8 7.4 7.2 6.9 12.5 9.2c3.7 1.7 6.7 5.2 6.7 5.2s0-2.6 3.1-5.2c4.5-3.8 6.9-5 12.5-9.2s5.8-7.4 5.8-7.4-.1-1-.5-2.7c-.4-2-.3-4.4-.3-6.9s.8-8.4.8-8.4 7.7 1 11.4 7.2c0 0 3.3 2.1 4.9 5.6s4.6 7.2 3.6 11.4c0 0 2.2 1.2 2.7 2.3.5 1.2 11.9 4.1 15.9 7.6s5.1 6 5.1 6 3.3 4 3.9 6.8c.5 2.8 3.2 17.8 1.8 26" fill="#110f11" stroke-width="none" opacity="1"></path><path id="SvgjsPath12819" d="M173.2 211.5c-.1-2.9-.2-5.7-.6-8.5s-.7-5.6-1.1-8.5c-.1-.7-.3-1.5-.6-2.2-.3-.7-.6-1.4-1-2-.7-1.2-1.5-2.4-2.4-3.5-.6-1.2-1.3-2.1-2.1-3.1s-1.7-1.9-2.6-2.7c-.9-.9-2-1.6-3.1-2.2-1.1-.6-2.2-1.1-3.4-1.6-2.3-1-4.6-1.9-6.8-2.8-.6-.2-1.1-.4-1.7-.7-.3-.1-.5-.2-.8-.4-.1-.1-.2-.1-.3-.2 0 0-.1 0-.1-.1l-.1-.1c-.1-.1-.1-.2-.2-.3-.1-.2-.2-.3-.4-.5-.3-.3-.5-.5-.8-.7-.3-.3-.7-.5-1-.7.2-1.6 0-3.3-.6-4.7-.6-1.7-1.4-3.1-2.2-4.6-.4-.7-.7-1.4-1.1-2.2-.4-.8-.8-1.6-1.4-2.3-1-1.4-2.2-2.5-3.6-3.5-1.3-2.1-3.1-3.8-5.1-5-1.1-.6-2.2-1.1-3.3-1.6-1.2-.4-2.3-.7-3.6-.9-.5-.1-2.9-.2-2.9-.2-1.5 11 1.8 18.5 1.9 19.2 0 .1-.1.4-.2.6v.1l-.3.6v.1c0 .1 0 .1-.1.2-.3.5-.6.9-.9 1.4-.7 1-1.6 1.9-2.6 2.7-.1.1-.3.2-.4.3-.2.2-.5.4-.7.6-.7.5-1.5 1.1-2.2 1.6-.9.7-1.8 1.4-2.8 2.2 0 0-.1 0-.1.1-2.1 1.5-4.3 3-6.3 4.7-1.7 1.4-3.7 3.1-4.3 5.6-1.8-1.8-3.8-3.3-6.1-4.4-2.6-1.1-4.9-2.6-7-4.5-1.1-.9-2.1-1.9-3.2-2.8-1.1-.9-2.2-1.8-3.3-2.6-1.1-.9-2.1-1.8-3-2.9-.3-.4-.6-.8-.8-1.2-.2-.4-.2-.8-.3-1.2-.1-.4-.2-.9-.2-1.2v-.1l-.1-.2c-.1-.1-.1-.3-.2-.5.1-.4.3-.8.5-1.1 2.3-1.9 2.5-9.2 2.4-10.8-.1-1.5-.2-5.8-.2-5.8-1.3.1-4.7.6-5.9.9-1.2.4-2.4.8-3.5 1.4-2.2 1.1-4.3 2.7-5.7 4.9-1.4.9-2.7 2.1-3.7 3.4-.5.7-1 1.4-1.4 2.3-.3.8-.7 1.4-1.1 2.2-.8 1.4-1.6 2.9-2.2 4.6-.5 1.4-.8 3.1-.6 4.7-.4.2-.7.5-1.1.8-.3.2-.5.4-.8.7-.1.1-.2.3-.4.4-.1.1-.1.2-.2.3v.1l-.1.1c-.1.1-.2.1-.3.2-.2.1-.5.2-.8.4-.5.2-1.1.5-1.7.7-2.3.9-4.6 1.7-6.8 2.7-1.1.5-2.3 1-3.4 1.6-1.1.6-2.2 1.4-3.1 2.2-.9.8-1.8 1.7-2.6 2.7-.8.9-1.5 1.9-2.1 3.1-.9 1.1-1.7 2.3-2.4 3.5-.4.6-.7 1.3-1 2-.3.7-.5 1.5-.6 2.2-.5 2.8-.9 5.6-1.2 8.5s-.5 5.7-.6 8.5c0 2.9 0 5.7.6 8.5h.2c-.4-2.8-.3-5.6-.1-8.5.2-2.8.5-5.6.9-8.4.4-2.8.9-5.6 1.4-8.4.1-.7.3-1.3.5-1.9.3-.6.6-1.2 1-1.8.7-1.2 1.5-2.3 2.4-3.4l.1-.1v-.1c.5-.9 1.2-1.9 2-2.8.8-.9 1.6-1.7 2.5-2.5 1.7-1.6 3.9-2.6 6.1-3.5 2.2-.9 4.5-1.8 6.8-2.6.6-.2 1.2-.4 1.7-.7.1 0 .2-.1.2-.1-.4.8-.8 1.6-1.1 2.4-.4 1.3-.7 2.7-.3 4.2.3.8.7 1.3 1.2 1.8s1 1 1.5 1.4c1.1.9 2.2 1.6 3.3 2.3 2.3 1.4 4.7 2.6 7.1 3.7 1.2.5 2.4 1.1 3.7 1.5 1.3.4 2.7.7 4 .9 2.7.4 5.3.5 8 .6 2.7.1 5.3.1 7.9.1 1.3 0 2.6.1 3.9.2l3.9.4c.6.1 1.2.1 1.7.2-2.1 2.1-4.3 5.2-5.4 9.6-1.4 6 .7 7.6 1.7 8 .3.1.7.2 1.1.2 1.4 0 2.9-1 3.8-2.6.7-1.2 1.4-3.5 2-6.1 0 7 .7 12.8.8 13.2.1.5.5.9 1 .9h.1c.6-.1.9-.6.9-1.1 0-.1-1.1-9.2-.6-18.3 1.5 6.3 3.9 15.4 6.7 18.8.3.4 1 .5 1.4.1s.5-1 .1-1.4c-2.9-3.5-5.6-14.9-6.9-20.7.1 0 .1-.1.2-.1 2.2 3.6 3.5 8.3 4.4 11.7.5 1.8.8 3.2 1.2 4.1.7 1.6 2.4 2.6 4.1 2.6.5 0 1.1-.1 1.5-.3 1-.4 4-2.3 1.2-9.2-2-4.9-5.4-8.3-8.4-10.5.3-.1.7-.3 1.1-.4 1.9-.6 3.9-1.3 5.8-1.4.4 0 1.1-.1 1.6-.2l1.5-.3c1-.2 2-.5 3-.8 2-.6 3.9-1.3 5.8-2 3.8-1.5 7.6-3.2 11.2-5.2 1.8-1 3.6-2.3 4.9-4 .6-.9 1.2-1.8 1.5-2.8.2-.6.4-1.2.4-1.8.1.1.2.1.3.2.3.1.6.3.9.4.6.2 1.2.5 1.7.7 2.3.9 4.6 1.7 6.8 2.6 2.2.9 4.4 1.9 6.1 3.5.9.8 1.7 1.6 2.5 2.5.8.9 1.5 1.9 2 2.8v.1l.1.1c.9 1 1.7 2.2 2.4 3.3.4.6.7 1.2.9 1.8.3.6.4 1.2.6 1.9.5 2.8 1 5.6 1.4 8.4.4 2.8.7 5.6.9 8.4.2 2.8.2 5.7-.1 8.5h.2c1.1-2.9 1.2-5.8 1.2-8.6zm-49.2-48c-.1-.3-.1-.7-.2-1-.2-.8-.2-1.4-.3-2.1-.1-1.4-.1-2.9-.1-4.4 0-1.5.1-2.9.3-4.4 0-.2.1-.5.1-.7.7 1 1.2 2.1 1.5 3.2.3 1.4.4 2.8.3 4.2-.1 1.4-.4 2.8-.9 4.1-.2.4-.5.8-.7 1.1zm-46.2-2.9c-.1.7-.2 1.4-.6 2.1-.1.1-.1.3-.2.4-.2-.6-.3-1.2-.4-1.7-.2-1.1-.4-2.2-.4-3.3-.1-1.1 0-2.1.4-3.1.3-.8.7-1.6 1.4-2.4.1 1.2.2 2.4.1 3.6-.1 1.4-.1 2.9-.3 4.4zm19.7 48.6c-.7 1.2-1.8 1.7-2.4 1.5-.8-.3-1.3-2.2-.5-5.7 1.2-4.8 4-8 6.1-9.8h.3c-.8 4.8-2.3 12-3.5 14zm4.6-17.4c-.2.1-1.5.8-3.1 2.3-.8-.1-1.7-.3-2.5-.4-2.6-.4-5.2-1-7.9-1.1-5.3-.4-10.6-.4-15.6-1.2-1.3-.2-2.5-.5-3.7-.8-1.2-.4-2.4-.9-3.6-1.4-2.4-1-4.8-2.1-7.1-3.3-1.2-.6-2.2-1.3-3.3-2-1-.7-2.1-1.5-2.6-2.5-.4-1.1-.3-2.4 0-3.6.2-1 .5-1.9 1-2.9 0 0 .1-.1.2-.1.2-.1.3-.2.5-.3.2-.1.3-.2.6-.5l.2-.3s0-.1.1-.1c0-.1.1-.2.2-.3.2-.2.4-.4.6-.5s.5-.3.7-.5v1.3c.1.8.4 1.6.7 2.4.7 1.5 1.7 2.9 2.7 4.2 1.1 1.2 2.3 2.4 3.6 3.4.7.5 1.3 1 2 1.5.7.4 1.4.9 2.1 1.3-1.2-1.2-2.4-2.3-3.5-3.4-1.2-1.1-2.3-2.3-3.3-3.5-1-1.2-2-2.5-2.8-3.9-.4-.7-.7-1.4-1-2.2-.1-.4-.2-.9-.3-1.3.2-.1.3-.2.4-.3.3-.2.5-.6.4-1-.3-1.4-.2-2.9.3-4.4.5-1.5 1.3-2.9 2.1-4.4.4-.7.8-1.5 1.1-2.3.3-.7.7-1.4 1.1-2 .4-.6.9-1.1 1.4-1.7-.7 1.5-1 3.1-1 4.8.1 2.6 1.3 5 2.6 7.1 1.3 2.2 2.7 4.3 4.4 6.2 1.7 1.9 3.8 3.5 6 4.8 2.2 1.3 4.6 2.2 6.9 3.1 2.4.9 4.8 1.7 7.2 2.4 2.4.8 4.8 1.5 7 2.7 2 1 3.8 2.3 5.4 3.9 0 .5-.1.6-.2.8zm13.5 13.3c1.4 3.4 1.3 6-.2 6.6-1.1.4-2.6-.2-3.1-1.2-.3-.8-.7-2.2-1.2-3.9-.9-3.4-2.1-8-4.3-11.8 2.9 1.8 6.7 5.2 8.8 10.3zm27.5-26.3c-1.3 1.4-3 2.4-4.8 3.3-3.6 1.8-7.4 3.3-11.2 4.8l-5.7 2.3c-.9.4-1.9.7-2.8 1.1-.5.2-.9.3-1.4.4-.5.1-.9.2-1.4.3-2.1.4-4 1.1-5.9 1.8l-1.5.6c-2.3-1.6-4.3-2.3-4.8-2.3-.2 0-.3.1-.5.1h-.2c-.2 0-.4.1-.6.2-1.5-1.6-3.3-3.1-5.2-4.2-2.2-1.3-4.6-2.1-7-3-4.7-1.7-9.5-3.2-13.8-5.7-2.1-1.2-4.1-2.7-5.8-4.5-1.7-1.8-3.1-3.9-4.4-6-.7-1.1-1.3-2.1-1.8-3.2s-.8-2.3-1-3.5c-.2-1.7.1-3.5.8-5.1.5-.4 1-.9 1.5-1.2h.1l.2-.2c1.2-2 3-3.6 5.1-4.7 1.1-.6 2.2-1 3.3-1.4 1-.3 2-.6 3-.7.2 1.3.3 2.6.4 4v.6c-1 .4-1.9 1.2-2.5 2.1-.7 1.1-1.1 2.4-1.1 3.7-.1 1.3.1 2.5.3 3.7.3 1.2.7 2.4 1.3 3.5.1.4.2.8.4 1.2.2.4.5.9.7 1.3.3.4.6.8 1 1.1l.9.6c.8.9 1.6 1.7 2.4 2.4 1.1.9 2.2 1.7 3.3 2.6 1.1.9 2.1 1.8 3.2 2.8 1.1.9 2.2 1.9 3.3 2.7 1.2.8 2.5 1.5 3.7 2.1 2.4 1.2 4.6 3.1 6.4 5.1.1.1.2.2.4.2.3 0 .6-.2.6-.5.1-1.1.7-2.3 1.4-3.2.7-1 1.8-1.7 2.8-2.5 2-1.6 4.2-3 6.4-4.5 1.1-.7 2.2-1.5 3.2-2.3.3-.2.7-.5 1-.7l1-.6c.8-.5 1.6-1 2.3-1.7.7-.6 1.4-1.3 2-2.1.3-.4.6-.8.8-1.3.1-.2.2-.5.3-.8 0-.1.1-.3.1-.4l.6-.6c.3-.3.6-.6.8-1 .5-.7.9-1.4 1.2-2.2.6-1.5.8-3.1.7-4.7 0-1.6-.3-3.1-.9-4.6-.5-1.2-1.3-2.3-2.3-3.1l.3-2.4 2.1.6c1 .4 2 .9 3 1.4 1.9 1.1 3.5 2.6 4.6 4.4l.3.3c.2.1.4.3.6.5 0 1.6-.2 3.1-.7 4.6-.6 1.9-1.6 3.7-2.8 5.2-2.5 3.1-5.7 5.6-9.2 7.6-.9.5-1.8.9-2.7 1.3-.9.4-1.9.9-2.8 1.4-1.8 1-3.6 2-5.2 3.2s-3.3 2.4-4.8 3.8c-.8.7-1.5 1.4-2.1 2.2-.6.8-1.3 1.6-1.5 2.6.3-1 1.1-1.7 1.7-2.5.7-.7 1.5-1.4 2.3-2 1.6-1.3 3.2-2.4 4.9-3.5 1.7-1.1 3.4-2.1 5.2-3 .9-.5 1.8-.9 2.7-1.3.9-.4 1.9-.8 2.8-1.3 1.8-1 3.5-2.2 5.1-3.5 1.6-1.3 3-2.8 4.3-4.4 2.2-2.9 3.4-6.6 3.1-10.2.9.7 1.8 1.6 2.5 2.6.4.6.9 1.3 1.1 1.9.3.8.7 1.6 1.1 2.3.8 1.5 1.6 2.9 2.1 4.3s.7 2.9.4 4.3c-.1.3 0 .6.2.9-1.1.9-2.2 1.7-3.4 2.4-1.4.9-3 1.7-4.6 2.3-1.6.6-3.2 1.1-4.9 1.6l-4.9 1.4c-1.7.5-3.3 1-4.9 1.6-.8.3-1.6.7-2.4 1.2-.4.2-.8.5-1.1.8-.3.3-.6.6-.9.8-2.7 2.1-5.8 3.6-8.4 5.9.3-.3.7-.5 1.1-.7l1.1-.6 2.3-1.2c1.5-.9 3-1.7 4.4-2.7.4-.2.7-.5 1.1-.8.3-.3.6-.5 1-.7.7-.4 1.5-.7 2.3-1 1.6-.6 3.2-1.1 4.9-1.6l4.9-1.5c1.6-.5 3.3-1 4.9-1.8 2.9-1.3 5.5-3.1 7.7-5.3l.2.2c.5.2 1 .6 1.4.9.2.2.4.3.6.5l.2.2.1.1.2.3c.2.3.4.4.5.5-.3 1.2-1.2 2.7-2.3 3.8zM42 203.8c-.7-2.5-1.7-5-2.9-7.3s-2.5-4.6-4.1-6.6c.9 2.5 1.8 4.9 2.6 7.3.9 2.4 1.7 4.8 2.4 7.2.3 1.2.6 2.4.9 3.7l.8 3.7c.5 2.5 1.1 5 1.7 7.5.2-2.6.1-5.2-.2-7.8-.1-2.6-.5-5.1-1.2-7.7zm117.5-7.6c-.7 1.1-1.2 2.3-1.7 3.5-.5 1.2-.8 2.4-1.1 3.7-.5 2.5-.7 5-.8 7.5 0 2.5.1 5 .5 7.5.4-2.5.7-4.9 1-7.4.4-2.4.7-4.9 1.2-7.2.5-2.4 1.1-4.6 2.2-6.8 1-2.1 2.4-4.2 4.1-6-2.2 1.1-4 3.1-5.4 5.2z" fill="#000000" stroke-width="none" opacity="1"></path><path id="SvgjsPath12820" d="M107.5 181.3c6.7-4 15.6-7.9 20-14.8 3.2-5 3.7-12.1-1-16.2-.3-.2-.8.1-.5.4 10.5 14.7-10.3 22.7-18.8 30.1-.3.2 0 .6.3.5zm30.2-23.2c-.1-.5-1-.5-1 0-1.4 8.9-6.9 13.3-14.7 17.2-5.8 2.8-11.3 5.4-15.1 10.8-.3.5.4 1.1.8.6 6.5-6.6 15.7-8.5 22.9-14 4.4-3.3 8.5-8.8 7.1-14.6zm-57 16.5c-8.2-5.3-14.7-16.3-5.2-24 .6-.5-.2-1.2-.7-.9-8 3.7-7.1 14-2.6 20.1 6.7 9 18.7 11.6 27.6 17.5.2.1.3-.1.2-.2-5.5-5.8-12.8-8.3-19.3-12.5zm15.8 15.5c-6.5-3.6-14.1-4.6-20.6-8.6-7-4.3-11.7-10.2-13.7-18.2-.1-.4-.7-.3-.6.1.4 7.5 5.4 14.1 11.2 18.5 6.3 4.7 15.6 8.9 23.5 9.4.5 0 .8-.9.2-1.2zm47.1-16.2c-6.3 8.2-15.4 10.1-25 12.1-.4.1-.2.6.2.5 9.3-1.2 20.3-3.6 25.5-12.3.2-.3-.4-.6-.7-.3zm26 24.6c-.5-3.4-.7-8.6-4.2-10.2v-.4c-2.4-6.2-11.4-11.6-18-11.3-.6 0-.7.9-.1 1.1 3.2 1.3 6.4 2.1 9.4 4 2.7 1.8 4.5 4.2 6.7 6.4-8.5 4.9-12.6 16.1-9.5 25.4.1.4.9.4.8-.1-1.2-10.3 2-17.9 9.7-24.3 5.9 7 3.7 19.7 4.8 28.2.1.6 1 .8 1.1.1.9-6.2.2-12.7-.7-18.9zM46.7 177.6c-5.3.9-9.7 5.4-11.9 10.1-.2.5.4.9.7.4 2.9-4.6 6.9-7.1 11.4-9.9.3-.2.1-.6-.2-.6zM33 191.9c-2.4 6.3-3.5 13.7-3.3 20.4 0 .5.8.5.8 0 .8-6.9 1.7-13.5 2.9-20.3.1-.3-.3-.4-.4-.1z" fill="#202020" stroke-width="none" opacity="1"></path></g><g id="svga-group-head" transform="matrix(0.9986295346632305,0.052335957985880914,-0.052335957985880914,0.9986295346632305,7.725760441629689,-5.034878324756505)"><g id="svga-group-ears-left-move" transform="matrix(1,0,0,1,0,0)"><g id="svga-group-ears-left"><path id="SvgjsPath12601" d="M64.4 97.4S60.2 93 59 91.6c-1.3-1.4-2.9-4.4-4.7-3.9s-1.2 2.6-1.3 5.4c-.1 2.9.3 8.6 2.1 11.7s2.7 4.2 3.3 7.5 2.6 3.9 3.8 3 4-6.6 4.1-9.6c.1-2.9-1.1-7-1.9-8.3z" fill="#f6e4e2" stroke-width="none" opacity="1"></path><path id="SvgjsPath12602" d="M65.3 99.4c.2.7.4 1.4.6 2.2.4 1.5.6 3 .6 4.6 0 .8-.2 1.5-.3 2.2-.2.7-.4 1.3-.6 2-.5 1.3-1 2.4-1.6 3.5-.3.6-.6 1.1-1 1.6-.2.2-.4.5-.7.7s-.6.3-.9.3c-.6.1-1.3-.1-1.9-.6-.6-.5-1.1-1.3-1.3-2.1l-.2-.6-.1-.6c-.1-.4-.1-.7-.2-1.1-.1-.7-.3-1.4-.6-2-.5-1.3-1.2-2.5-1.9-3.8-.4-.6-.7-1.3-1-2.1-.3-.7-.4-1.5-.6-2.2-.3-1.5-.5-3-.7-4.5-.1-1.5-.2-3-.2-4.4 0-.7-.1-1.4-.1-2.2 0-.4 0-.8.1-1.2.1-.4.2-.8.4-1.1.2-.3.5-.5.8-.6s.6-.2.9-.1c.7.1 1.3.5 1.8 1 1 1 1.8 2.3 2.6 3.2 1.8 2.1 3.5 4.2 5.3 6.1.3.4.6 1.1.8 1.8zM58.8 92c-1-1-1.8-2.1-2.7-2.9-.4-.4-.9-.7-1.3-.7s-.9.1-1.1.4c-.3.3-.4.9-.4 1.6v2.2c0 .8-.1 1.4-.1 2.2 0 .7 0 1.4.1 2.2.1 1.5.3 2.9.7 4.4.4 1.4.9 2.8 1.7 3.9.7 1.2 1.6 2.3 2.2 3.8.3.7.6 1.5.8 2.2.1.4.2.8.3 1.1l.1.5.1.5c.2.6.5 1.1.9 1.4s.8.4 1.2.3c.2 0 .4-.1.6-.2.2-.1.3-.3.5-.5.3-.4.6-.9.9-1.4.6-1 1.1-2.1 1.6-3.3.5-1.2.9-2.3 1.1-3.6.2-1.3 0-2.8-.2-4.3-.1-.7-.3-1.5-.5-2.2s-.5-1.4-.8-2c-1.9-2.1-3.8-3.8-5.7-5.6z" fill="#e7c1bd" stroke-width="none" opacity="1"></path><path id="SvgjsPath12603" d="M53.4 92.2c.5-1.8 2-.9 2.9.4 1.7 2.5 3 6.2 3.4 9.4 0 .1-.1.2-.1.1-.1.1-.2.1-.2-.1-1.1-.4-1.5-.2-1.2.7 0 .3.1.6.3.8.2.5.5 1 .8 1.4.5.8 1.1 1.4 1.6 2.2.2.3 0 .5-.2.4-1.3-.9-3.6-4.1-3-6.2.2-.8.9-1 1.4-.6-1-3.4-3.7-11.3-5.4-8.3-.1.1-.3-.1-.3-.2z" fill="#d7a19b" stroke-width="none" opacity="1"></path><path id="SvgjsPath12604" d="M56.1 92.6c-1 1.9-1.3 4.1-.8 6.7.3 1.4 2.8 8.9 4.6 7.9.2-.1.4.3.2.5-1.9 1.7-4-4.2-4.6-6.1-1.1-3.2-1.3-7 .5-9.1 0-.1.2 0 .1.1z" fill="#d7a19b" stroke-width="none" opacity="1"></path></g></g><g id="svga-group-ears-right-move" transform="matrix(1,0,0,1,0,0)"><g id="svga-group-ears-right"><path id="SvgjsPath12605" d="M135.6 97.4s4.2-4.4 5.4-5.8c1.3-1.4 2.9-4.4 4.7-3.9s1.2 2.6 1.3 5.4c.1 2.9-.3 8.6-2.1 11.7s-2.7 4.2-3.3 7.5-2.6 3.9-3.8 3-4-6.6-4.1-9.6c-.1-2.9 1.1-7 1.9-8.3z" fill="#f6e4e2" stroke-width="none" opacity="1"></path><path id="SvgjsPath12606" d="M135.6 97.4c1.8-1.9 3.5-4 5.3-6.1.8-1 1.5-2.3 2.6-3.2.5-.5 1.1-.9 1.8-1 .3 0 .6 0 .9.1.3.1.6.3.8.6.2.3.4.7.4 1.1.1.4.1.8.1 1.2 0 .8-.1 1.5-.1 2.2 0 1.4-.1 3-.2 4.4-.1 1.5-.3 3-.7 4.5-.2.7-.4 1.5-.6 2.2-.3.7-.6 1.4-1 2.1-.7 1.3-1.4 2.5-1.9 3.8-.3.6-.4 1.3-.6 2-.1.3-.1.7-.2 1.1l-.1.6-.2.6c-.3.8-.7 1.6-1.3 2.1s-1.3.7-1.9.6c-.3 0-.6-.1-.9-.3-.3-.2-.5-.4-.7-.7-.4-.5-.7-1-1-1.6-.6-1.1-1.2-2.3-1.6-3.5-.2-.6-.4-1.3-.6-2-.2-.7-.3-1.4-.3-2.2 0-1.6.3-3.1.6-4.6.2-.7.4-1.5.6-2.2.1-.5.4-1.2.8-1.8zm0 .1c-.3.6-.6 1.3-.8 2s-.4 1.4-.5 2.2c-.2 1.4-.4 3-.2 4.3s.7 2.5 1.1 3.6c.5 1.1 1 2.3 1.6 3.3.3.5.6 1 .9 1.4.2.2.3.4.5.5s.4.2.6.2c.4.1.8 0 1.2-.3s.7-.8.9-1.4l.1-.5.1-.5c.1-.4.2-.8.3-1.1.2-.8.4-1.5.8-2.2.6-1.4 1.5-2.6 2.2-3.8.8-1.1 1.3-2.5 1.7-3.9s.6-2.9.7-4.4c0-.7.1-1.5.1-2.2s-.1-1.4-.1-2.2v-2.2c0-.7-.1-1.3-.4-1.6-.3-.3-.7-.4-1.1-.4-.4 0-.9.3-1.3.7-.9.8-1.7 1.9-2.7 2.9-2 1.9-3.9 3.6-5.7 5.6z" fill="#e7c1bd" stroke-width="none" opacity="1"></path><path id="SvgjsPath12607" d="M146.6 92.2c-.5-1.8-2-.9-2.9.4-1.7 2.5-3 6.2-3.4 9.4 0 .1.1.2.1.1.1.1.2.1.2-.1 1.1-.4 1.5-.2 1.2.7 0 .3-.1.6-.3.8-.2.5-.5 1-.8 1.4-.5.8-1.1 1.4-1.6 2.2-.2.3 0 .5.2.4 1.3-.9 3.6-4.1 3-6.2-.2-.8-.9-1-1.4-.6 1-3.4 3.7-11.3 5.4-8.3.1.1.3-.1.3-.2z" fill="#d7a19b" stroke-width="none" opacity="1"></path><path id="SvgjsPath12608" d="M143.9 92.6c1 1.9 1.3 4.1.8 6.7-.3 1.4-2.8 8.9-4.6 7.9-.2-.1-.4.3-.2.5 1.9 1.7 4-4.2 4.6-6.1 1.1-3.2 1.3-7-.5-9.1 0-.1-.2 0-.1.1z" fill="#d7a19b" stroke-width="none" opacity="1"></path></g></g><g id="svga-group-faceshape-wrap"><g id="svga-group-faceshape-single"><path id="SvgjsPath12639" d="M141 88.4c0 30.3-18.9 65.2-41 65.2s-41-34.9-41-65.2 18.9-47 41-47 41 16.6 41 47z" fill="#f6e4e2" stroke-width="none" opacity="1"></path><path id="SvgjsPath12640" d="M100 41.3c-22.1 0-41.1 16.7-41.1 47s19 65.5 41.1 65.5 41.1-35.2 41.1-65.5-19-47-41.1-47zm28.2 13.6.8.8c.3.3.5.6.8.9.3.3.5.6.8.9l.7.9c.2.3.5.6.7.9l.7 1 .3.5.3.5c.4.7.9 1.3 1.2 2l.6 1c.2.3.4.7.5 1l.5 1.1.5 1.1c.2.4.3.7.5 1.1l.4 1.1c2.3 5.9 3.2 12.4 3.3 18.7 0 6.4-.9 12.8-2.6 18.9-.8 3.1-1.9 6.1-3.1 9-1.2 2.9-2.5 5.8-4 8.6s-3.1 5.5-4.8 8.1c-.9 1.3-1.8 2.6-2.7 3.8-.9 1.2-1.9 2.4-3 3.6-2 2.3-4.3 4.4-6.7 6.3-2.4 1.8-5 3.3-7.8 4.3-1.4.5-2.8.9-4.3 1-1.5.2-2.9.2-4.4.1-3-.2-5.9-1.2-8.6-2.6-2.7-1.4-5.3-3.3-7.6-5.4-2.3-2.1-4.4-4.5-6.3-7.1s-3.6-5.3-5-8.1c-1.5-2.8-2.8-5.7-3.9-8.7-.6-1.5-1.1-3-1.6-4.5s-.9-3-1.3-4.6c-.8-3.1-1.4-6.2-1.8-9.3-.4-3.1-.7-6.3-.8-9.4 0-1.6 0-3.1.1-4.7 0-.8.1-1.6.1-2.3l.2-2.3c.3-3.1.9-6.2 1.7-9.1.8-3 1.8-5.9 3.2-8.6.2-.4.3-.7.5-1l.5-1c.4-.7.8-1.3 1.2-2 .4-.6.8-1.3 1.3-1.9l.7-.9.3-.5.4-.4c1.9-2.4 4.1-4.5 6.5-6.3s5-3.3 7.8-4.5 5.7-2 8.6-2.5c.7-.2 1.5-.2 2.2-.3.4-.1.8-.1 1.1-.1l1.1-.1c.8 0 1.5-.1 2.3-.1H102.6l1.1.1c.4 0 .8.1 1.1.1.4 0 .8.1 1.1.1l1.1.2.6.1.6.1 1.1.2c.4.1.7.2 1.1.3s.7.2 1.1.3c1.4.4 2.9.9 4.3 1.5s2.8 1.2 4.1 2c2.7 1.5 5.2 3.3 7.4 5.4l.4.4.5.3z" fill="#c8837c" stroke-width="none" opacity="1"></path></g></g><g id="svga-group-mouth-single-move" transform="matrix(1,0,0,1,0,0)"><g id="svga-group-mouth-single" transform="matrix(0.8499994000000002,0,0,0.8499994000000002,15.037856553163124,19.840947359687775)"><path id="SvgjsPath12589" d="M86.9 128.6s2-.5 3.7-2.3c1.8-1.8 2.3-2.2 3.2-2.6 1-.4 3.2-1 4.9.4 1.6 1.3 2 .5 2.7 0s2-1.4 4.2-.6 4.3 3.4 5.6 4.1 2.2.9 2.2.9-1.7 2.4-3.1 3.8c-1.9 2-4.3 2.7-8.6 3-4.3.3-7.2-.5-9-1.7-1.9-1.2-3.5-3.2-3.9-3.6-.5-.5-1.9-1.4-1.9-1.4z" fill="#e2929b" stroke-width="none" opacity="1" transform="translate(0 3)"></path><path id="SvgjsPath12590" d="M86.2 128.6c1.8.9 3.6.8 5.5.4 1.4-.3 2.9-.6 4.3-.5s2.7.8 4.2.9c1.1 0 2-.4 3-.7 1.9-.6 3.5-.3 5.4.1 1.9.4 4 1 5.7-.2.3-.2.1-.6-.2-.6-2.7.5-4.7-.2-7.4-.6-2.4-.4-4.4 1.1-6.8.8-2-.2-3.5-1-5.5-.7-2.7.3-5.2 1.4-7.9.4-.4 0-.6.6-.3.7z" fill="#d3737e" stroke-width="none" opacity="1" transform="translate(0 3)"></path><path id="SvgjsPath12591" d="M109.8 130.3c-4.4.3-8.6 1.8-13 1.6-.2 0-.3.3-.1.4 4.3 1.1 9.6 1.4 13.2-1.8.1-.1 0-.2-.1-.2z" fill="#f1b4bb" stroke-width="none" opacity="1" transform="translate(0 3)"></path></g></g><g id="svga-group-eyes-left-move" transform="matrix(1,0,0,1,0,1)"><g id="svga-group-eyes-left"><g id="svga-group-eyesback-left"><path id="SvgjsPath12736" d="M92.1 98.1s-3.5 2.7-5.9 3.2c-2.4.5-6.1.8-9.4-.1-3.2-1-4.9-2.8-4.9-2.8s1.4-2.6 3.4-3.6 4.1-2.6 8.6-1.9 7.3 3.7 8.2 5.2z" fill="#ffffff" stroke-width="none" opacity="1"></path></g><g id="svga-group-eyesiriswrapper-left" transform="matrix(1,0,0,1,0,0)"><g id="svga-group-eyesiriscontrol-left" transform="matrix(1,0,0,1,0,0)"><g id="svga-group-eyesiris-left"><path id="SvgjsPath12674" d="M82 91c3 0 5.4 2.4 5.4 5.4s-2.4 5.4-5.4 5.4-5.4-2.4-5.4-5.4S79 91 82 91z" fill="#586047" stroke-width="none" opacity="1"></path><path id="SvgjsPath12675" d="M82 91.3c2.8 0 5.2 2.3 5.2 5.2s-2.3 5.2-5.2 5.2-5.2-2.3-5.2-5.2 2.3-5.2 5.2-5.2m0-.5c-3.1 0-5.7 2.6-5.7 5.7s2.6 5.7 5.7 5.7 5.7-2.6 5.7-5.7c0-3.2-2.6-5.7-5.7-5.7z" fill="#384123" stroke-width="none" opacity="1"></path><path id="SvgjsPath12676" d="M79.1 98c0 1.3.5 2.5 1.4 3.4.5.2 1 .2 1.5.2 2.8 0 5.2-2.3 5.2-5.2 0-1.1-.3-2-.9-2.8-.7-.4-1.5-.6-2.3-.6-2.7 0-4.9 2.2-4.9 5z" fill="#6a6f5d" stroke-width="none" opacity="1"></path><path id="SvgjsPath12677" d="M82 93.6c1.5 0 2.8 1.3 2.8 2.8s-1.3 2.8-2.8 2.8-2.8-1.3-2.8-2.8 1.3-2.8 2.8-2.8z" fill="#000000" stroke-width="none" opacity="1"></path><path id="SvgjsPath12678" d="M80.7 93.6c.5 0 1 .4 1 1s-.4 1-1 1-1-.4-1-1 .5-1 1-1zm3.2 4.4c.2 0 .4.2.4.4s-.2.4-.4.4-.4-.2-.4-.4.2-.4.4-.4z" fill="#ffffff" stroke-width="none" opacity="1"></path><path id="SvgjsPath12679" d="M82 101.6c.3 0 .5 0 .8-.1-.2 0-.3-.2-.4-.4-.1.3-.3.4-.4.5-.3 0-.5-.2-.5-.4-.1.2-.4.3-.6.2-.2-.1-.4-.3-.4-.5-.2.2-.4.2-.6.1s-.3-.3-.3-.5c-.2.2-.5.1-.7 0s-.2-.5-.1-.7c-.2.2-.5.1-.7 0-.2-.2-.2-.5 0-.7-.3.1-.5-.1-.7-.3.8 1.7 2.6 2.8 4.6 2.8zm-4.7-3s0-.1 0 0c0-.1 0 0 0 0zm9 .7c-.1.1-.3.2-.5.2.1.4-.3.8-.8.8.1.2 0 .4-.2.6-.2.1-.4.1-.6 0 0 .2-.1.4-.3.5-.2.1-.5 0-.6-.2 0 .2-.1.4-.2.5 1.3-.5 2.5-1.3 3.2-2.4zm-1.9-7.2c.3-.1.6.2.5.5.3-.2.8.3.6.6.2-.1.4 0 .4.2.1.2.1.4-.1.5.2 0 .5.1.6.3s.1.5-.1.7c.2 0 .4.2.5.4.1.2 0 .5-.2.6.2.1.3.3.3.5s-.1.4-.3.5c.2.1.3.3.3.5s-.2.4-.4.4c.3.2.1.8-.2.8.1.1.1.3.1.5.5-.8.7-1.7.7-2.6 0-2.1-1.2-3.8-2.9-4.7.1 0 .2.2.2.3zm-.6-.3c.1-.1.2-.1.3 0-.5-.2-1-.4-1.5-.4v.1c.4-.2.9 0 1.2.3zm-5.6 7.1c.2 0 .3-.1.4-.2.2-.1.3-.2.5-.3v-.1c-.2.1-.3.1-.4.2-.2.2-.4.3-.5.4zM77 97.4c.1 0 .3 0 .4-.1.2 0 .3-.1.5-.1.1 0 0-.1 0-.1-.2 0-.3 0-.5.1-.1 0-.3 0-.4.2 0-.1 0 0 0 0zm.5-2.5c.4.2.8.3 1.2.4 0 0 .1 0 0-.1-.3-.2-.8-.3-1.2-.3 0-.1 0 0 0 0zm.2-.8c.2.2.4.3.7.4 0 0 .1 0 0-.1-.2-.1-.5-.2-.7-.3 0-.1-.1 0 0 0zm3.8 6.7c.1-.3.2-.7.2-1 0 0-.1-.1-.1 0-.1.3-.1.7-.1 1-.1 0 0 0 0 0zm3.5-4.1c.3.1.7.1 1.1.2v-.1c-.3 0-.7-.1-1.1-.1zm.3-.7c.3 0 .7.1 1 0v-.1c-.4 0-.7 0-1 .1zm.1-2.7c-.3.2-.7.5-.9.8 0 0 0 .1 0 0 .3-.3.7-.5.9-.8.1 0 .1-.1 0 0zM82.5 92c-.1.3-.2.5-.2.8 0 .1.1.1.1 0 .1-.3.2-.5.1-.8.1-.1.1-.1 0 0zm-2.9.3c.1.2.2.5.3.7h.1c-.1-.3-.2-.5-.4-.7 0-.1 0-.1 0 0z" fill="#384123" stroke-width="none" opacity="1"></path></g></g></g><g id="svga-group-eyesfront-left"><path id="SvgjsPath12744" d="M70.7 98c0 6.9 4.9 12.5 11 12.5s11-5.6 11-12.5-4.9-12.5-11-12.5-11 5.6-11 12.5zm1.2.4s1.4-2.6 3.4-3.6 4.1-2.6 8.6-1.9c4.5.7 7.2 3.6 8.2 5.1 0 0-3.5 2.7-5.9 3.2-2.4.5-6.1.8-9.4-.1-3.2-.9-4.9-2.7-4.9-2.7z" fill="#f6e4e2" stroke-width="none" opacity="1"></path><path id="SvgjsPath12745" d="M91 96.6s-2.7-3.5-7.8-3.9c-5.1-.5-9.4 2.8-11.3 5.7 0 0-2 .5-3.3-.7 0 0 2 .1 4.3-2.1 2.1-2.1 5.6-4 9.8-3.4 4.5.5 6.4 1.8 8.3 4.4z" fill="#e7c1bd" stroke-width="none" opacity="1"></path><path id="SvgjsPath12746" d="M69.9 95.9c-.1-.1 0-.2.1-.2 1.2.7 2.2.7 3.3.2.4-.5.9-.9 1.4-1.3-1 0-2-.4-2.6-1.2-.1-.1.1-.2.1-.1.9.7 1.9 1.1 2.9 1 .6-.4 1.1-.7 1.8-1-.6-.3-1.1-.8-1.3-1.5 0-.1.1-.2.2-.1.4.6.9 1.1 1.6 1.4.7-.3 1.4-.5 2.1-.6-.1-.1-.2-.1-.2-.2-.2-.3-.5-.7-.5-1.1 0-.1.2-.2.3-.1.2.3.2.6.4.9.1.2.2.3.4.4 4.8-.7 10.1 1.5 12.6 6 .1.2-.2.4-.3.2-2.3-3.5-6.2-5.7-10.5-5.5-3.9.2-7.1 2.4-9.6 5.4 6.2 4.1 13.4 4 19.5-.2.1-.1.3.1.1.2-3.1 2.8-7.2 4-11.1 3.8-.1.1-.2.3-.2.4-.1.2-.1.3-.2.5-.1.1-.2.1-.2-.1 0-.3.1-.6.3-.9-.8-.1-1.6-.2-2.4-.4-.1.1-.3.2-.4.4-.1.2-.2.4-.4.6-.1.1-.2 0-.2-.1 0-.3.2-.5.3-.7.1-.1.2-.2.2-.3-.6-.2-1.3-.4-1.9-.7-.2.1-.4.2-.6.4l-.6.6c-.1.1-.2 0-.2-.1.2-.4.6-.8 1.1-1-.6-.3-1.2-.6-1.7-1-.2.1-.4.1-.6.3-.3.2-.5.4-.8.6-.1.1-.2 0-.2-.1.2-.5.8-.8 1.3-1-.4-.3-.9-.6-1.3-1l-.1.1c-.1.1-.3 0-.2-.2 0 0 0-.1.1-.1 0-.1 0-.1.1-.2.3-.6.6-1.2 1-1.8-1 .4-2.1.1-2.9-.6z" fill="#000000" stroke-width="none" opacity="1"></path></g></g></g><g id="svga-group-eyes-right-move" transform="matrix(1,0,0,1,0,1)"><g id="svga-group-eyes-right"><g id="svga-group-eyesback-right"><path id="SvgjsPath12737" d="M107.9 98.1s3.5 2.7 5.9 3.2c2.4.5 6.1.8 9.4-.1 3.2-1 4.9-2.8 4.9-2.8s-1.4-2.6-3.4-3.6-4.1-2.6-8.6-1.9-7.3 3.7-8.2 5.2z" fill="#ffffff" stroke-width="none" opacity="1"></path></g><g id="svga-group-eyesiriswrapper-right" transform="matrix(1,0,0,1,0,0)"><g id="svga-group-eyesiriscontrol-right" transform="matrix(1,0,0,1,0,0)"><g id="svga-group-eyesiris-right"><path id="SvgjsPath12680" d="M118 91c3 0 5.4 2.4 5.4 5.4s-2.4 5.4-5.4 5.4-5.4-2.4-5.4-5.4S115 91 118 91z" fill="#586047" stroke-width="none" opacity="1"></path><path id="SvgjsPath12681" d="M118 91.3c2.8 0 5.2 2.3 5.2 5.2s-2.3 5.2-5.2 5.2-5.2-2.3-5.2-5.2 2.4-5.2 5.2-5.2m0-.5c-3.1 0-5.7 2.6-5.7 5.7s2.6 5.7 5.7 5.7 5.7-2.6 5.7-5.7c0-3.2-2.5-5.7-5.7-5.7z" fill="#384123" stroke-width="none" opacity="1"></path><path id="SvgjsPath12682" d="M115.1 98c0 1.3.5 2.5 1.4 3.4.5.2 1 .2 1.5.2 2.8 0 5.2-2.3 5.2-5.2 0-1.1-.3-2-.9-2.8-.7-.3-1.4-.6-2.3-.6-2.7 0-4.9 2.2-4.9 5z" fill="#6a6f5d" stroke-width="none" opacity="1"></path><path id="SvgjsPath12683" d="M118 93.6c1.5 0 2.8 1.3 2.8 2.8s-1.3 2.8-2.8 2.8-2.8-1.3-2.8-2.8 1.3-2.8 2.8-2.8z" fill="#000000" stroke-width="none" opacity="1"></path><path id="SvgjsPath12684" d="M116.8 93.6c.5 0 1 .4 1 1s-.4 1-1 1-1-.4-1-1 .4-1 1-1zM120 98c.2 0 .4.2.4.4s-.2.4-.4.4-.4-.2-.4-.4.2-.4.4-.4z" fill="#ffffff" stroke-width="none" opacity="1"></path><path id="SvgjsPath12685" d="M118 101.6c.3 0 .5 0 .8-.1-.2 0-.3-.2-.4-.4 0 .3-.2.4-.4.5-.3 0-.5-.2-.5-.4-.1.2-.4.3-.6.2-.2-.1-.4-.3-.4-.5-.2.2-.4.2-.6.1s-.3-.3-.3-.5c-.2.2-.5.1-.7 0s-.2-.5-.1-.7c-.2.2-.5.1-.7 0-.2-.2-.2-.5 0-.7-.2 0-.5-.1-.7-.3.9 1.7 2.6 2.8 4.6 2.8zm-4.7-3s0-.1 0 0c0-.1 0 0 0 0zm9 .7c-.1.1-.3.2-.5.2.1.4-.3.8-.8.8.1.2 0 .4-.2.6-.2.1-.4.1-.6 0 0 .2-.1.4-.3.5-.2.1-.5 0-.6-.2 0 .2-.1.4-.2.5 1.4-.5 2.5-1.3 3.2-2.4zm-1.9-7.2c.3-.1.6.2.5.5.3-.2.8.3.6.6.2-.1.4 0 .4.2.1.2.1.4-.1.5.2 0 .5.1.6.3s.1.5-.1.7c.2 0 .4.2.5.4.1.2 0 .5-.2.6.2.1.3.3.3.5s-.1.4-.3.5c.2.1.3.3.3.5s-.2.4-.4.4c.3.2.1.8-.2.8.1.1.1.3.1.5.5-.8.7-1.7.7-2.6 0-2.1-1.2-3.8-2.9-4.7.2 0 .2.2.2.3zm-.5-.3c.1-.1.2-.1.3 0-.5-.2-1-.4-1.5-.4v.1c.4-.2.9 0 1.2.3zm-5.6 7.1c.2 0 .3-.1.4-.2.2-.1.3-.2.5-.3v-.1c-.2.1-.3.1-.4.2-.2.2-.4.3-.5.4-.1 0 0 0 0 0zm-1.2-1.5c.1 0 .3 0 .4-.1.2 0 .3-.1.5-.1.1 0 0-.1 0-.1-.2 0-.3 0-.5.1-.2 0-.3 0-.4.2-.1-.1-.1 0 0 0zm.5-2.5c.4.2.8.3 1.2.4 0 0 .1 0 0-.1-.4-.2-.8-.3-1.2-.3 0-.1-.1 0 0 0zm.1-.8c.2.2.4.3.7.4 0 0 .1 0 0-.1s-.4-.2-.7-.3c0-.1 0 0 0 0zm3.8 6.7c.1-.3.2-.7.2-1 0 0-.1-.1-.1 0 0 .3-.1.7-.1 1zm3.6-4.1c.3.1.7.1 1.1.2v-.1c-.4 0-.8-.1-1.1-.1zm.2-.7c.3 0 .7.1 1 0v-.1c-.3 0-.6 0-1 .1zm.2-2.7c-.3.2-.7.5-.9.8 0 0 0 .1 0 0 .3-.3.6-.5.9-.8.1 0 0-.1 0 0zm-2.9-1.3c-.1.3-.2.5-.2.8 0 .1.1.1.1 0 .1-.3.1-.5.1-.8.1-.1 0-.1 0 0zm-2.9.3c.1.2.2.5.3.7h.1c-.1-.3-.3-.5-.4-.7 0-.1 0-.1 0 0z" fill="#384123" stroke-width="none" opacity="1"></path></g></g></g><g id="svga-group-eyesfront-right"><path id="SvgjsPath12747" d="M118.3 85.5c-6.1 0-11 5.6-11 12.5s4.9 12.5 11 12.5 11-5.6 11-12.5-5-12.5-11-12.5zm4.9 15.7c-3.2 1-7 .6-9.4.1-2.4-.5-5.9-3.2-5.9-3.2.9-1.5 3.6-4.4 8.2-5.1 4.5-.7 6.7.9 8.6 1.9 2 1 3.4 3.6 3.4 3.6s-1.7 1.7-4.9 2.7z" fill="#f6e4e2" stroke-width="none" opacity="1"></path><path id="SvgjsPath12750" d="M109 96.6s2.7-3.5 7.8-3.9c5.1-.5 9.4 2.8 11.3 5.7 0 0 2 .5 3.3-.7 0 0-2 .1-4.3-2.1-2.1-2.1-5.6-4-9.8-3.4-4.5.5-6.4 1.8-8.3 4.4z" fill="#e7c1bd" stroke-width="none" opacity="1"></path><path id="SvgjsPath12751" d="M130.1 95.9c.1-.1 0-.2-.1-.2-1.2.7-2.2.7-3.3.2-.4-.5-.9-.9-1.4-1.3 1 0 2-.4 2.6-1.2.1-.1-.1-.2-.1-.1-.9.7-1.9 1.1-2.9 1-.6-.4-1.1-.7-1.8-1 .6-.3 1.1-.8 1.3-1.5 0-.1-.1-.2-.2-.1-.4.6-.9 1.1-1.6 1.4-.7-.3-1.4-.5-2.1-.6.1-.1.2-.1.2-.2.2-.3.5-.7.5-1.1 0-.1-.2-.2-.3-.1-.2.3-.2.6-.4.9-.1.2-.2.3-.4.4-4.8-.7-10.1 1.5-12.6 6-.1.2.2.4.3.2 2.3-3.5 6.2-5.7 10.5-5.5 3.9.2 7.1 2.4 9.6 5.4-6.2 4.1-13.4 4-19.5-.2-.1-.1-.3.1-.1.2 3.1 2.8 7.2 4 11.1 3.8.1.1.2.3.2.4.1.2.1.3.2.5.1.1.2.1.2-.1 0-.3-.1-.6-.3-.9.8-.1 1.6-.2 2.4-.4.1.1.3.2.4.4.1.2.2.4.4.6.1.1.2 0 .2-.1 0-.3-.2-.5-.3-.7-.1-.1-.2-.2-.2-.3.6-.2 1.3-.4 1.9-.7.2.1.4.2.6.4l.6.6c.1.1.2 0 .2-.1-.2-.4-.6-.8-1.1-1 .6-.3 1.2-.6 1.7-1 .2.1.4.1.6.3.3.2.5.4.8.6.1.1.2 0 .2-.1-.2-.5-.8-.8-1.3-1 .4-.3.9-.6 1.3-1l.1.1c.1.1.3 0 .2-.2 0 0 0-.1-.1-.1 0-.1 0-.1-.1-.2-.3-.6-.6-1.2-1-1.8 1 .4 2.1.1 2.9-.6z" fill="#000000" stroke-width="none" opacity="1"></path></g></g></g><g id="svga-group-facehighlight-single"></g><g id="svga-group-eyebrows-left-move" transform="matrix(1,0,0,1,0,1)"><g id="svga-group-eyebrows-left-rotate" transform="matrix(1,1.7453292519943295e-9,-1.7453292519943295e-9,1,1.5003287501258455e-7,-1.402671330197336e-7)"><g id="svga-group-eyebrows-left"><path id="SvgjsPath12794" d="M68.8 86s.1 0 0 0c.1-.1.1-.1.1-.2.3-.6.9-1 1.4-1.3.6-.4 1.3-.9 1.9-1.3h.1c1.5-1.1 4-1.3 6-.8 1.9.2 3.8.8 5 1.3.1 0 .2.1.4.1 1.6.3 3.3.6 4.8 1.2 1.5.3 3 .5 4.4 1h.1c.1-.1.4 0 .4.2.1.2.1.4 0 .7.2 0 .3.1.3.3-.1.5-.3.9-.6 1.3v.1c-.3.8-.9 1.1-1.8 1-.1 0-.2 0-.4-.1-.1.1-.2.1-.3.1-1.6-.1-3.2-.8-4.6-1.4-.9-.4-1.9-.8-2.8-1.3-1.4-.2-2.8-.6-4.2-.9-1.3-.3-2.8-.3-4-.8-.4.1-.9.1-1.3.2-.3.1-.6.2-1 .2-1 .3-2.2.8-3.2.9h-.1c-.1 0-.1.1-.2.1-.2.2-.4.4-.7.5-.1 0-.3-.1-.3-.2 0-.5.3-.7.6-.9z" fill="#543c32" stroke-width="none" opacity="1"></path><path id="SvgjsPath12795" d="M89.9 85.4c1.3.8 1.5 2.8 1.3 4.2 0 .3-.5.3-.6 0-.2-.7-.2-1.4-.3-2.1-.2-.6-.4-1.1-.7-1.7-.1-.3.1-.6.3-.4zm-3.2-.9c2.1.4 3.4 2.9 3.6 4.8 0 .2-.3.2-.3.1-.2-1-.6-1.9-1.2-2.7-.6-.8-1.4-1.3-2.2-2-.1-.1 0-.3.1-.2zM81 83.1c.9.2 1.9 1 2.6 1.7.7.7 1.3 1.5 1.5 2.4 0 .2-.2.3-.3.2-.5-.8-.9-1.6-1.7-2.2-.7-.6-1.6-1-2.2-1.8-.1-.2-.1-.3.1-.3zM76.3 82c2.3 0 4.7 2.1 5.4 4.2.1.2-.2.3-.3.1-.6-.9-1.2-1.8-2.1-2.5-.9-.7-1.9-1-3-1.4-.3-.1-.3-.4 0-.4zm-5.6 2.4c2.1-2.7 6.2-1.8 7.9.8.1.2-.2.4-.3.2-1-.9-2.1-1.9-3.5-2-1.5-.2-2.7.8-3.9 1.3-.3.1-.3-.2-.2-.3z" fill="#634e45" stroke-width="none" opacity="1"></path><path id="SvgjsPath12796" d="M92.1 90.3c1.6-.4 2-2.2 2-3.7 0-.3-.4-.3-.5-.1-.2.6-.4 1.3-.7 1.8-.3.5-.7.8-1.1 1 .4-1.2.2-2.6-.6-3.7.6.1 1.1.3 1.7.4.2 0 .3-.2.1-.3-2.7-1-5.6-1.6-8.3-2.4-2.4-.7-4.9-1.4-7.3-1.7-4.6-.6-7.6 2.4-10.3 5.7-.1.1-.2.2-.3.2-.4.3 0 .9.4.6 2.5-1.5 5-2.4 7.9-2.4 3.1.1 6.2 1.1 9.2 2.1 1.6.6 3.1 1.2 4.6 1.8 1 .6 2.1 1 3.2.7zm-20-6.8c1-.7 2.1-1 3.1-1.1.8.4 1.6.8 2.3 1.4.5.5.9 1.1 1.3 1.6-.1 0-.2-.1-.4-.1-3.4-.7-6.6-.4-9.5 1 1-1 2-2 3.2-2.8zm19.3 6c-.5 0-1.1-.1-1.7-.3-1.2-.4-2.4-1-3.6-1.5-.2-.1-.4-.1-.6-.2 0-.9-.3-1.8-.9-2.4-.1-.1-.3 0-.2.2.3.7.7 1.4.9 2.1-.8-.3-1.5-.6-2.3-.8-.7-1.5-2.1-3.1-3.6-3.8-.2-.1-.3.2-.2.3.6.6 1.3 1 1.9 1.7.5.5.9 1.1 1.3 1.7-1-.3-1.9-.6-2.9-.8-.2-.8-.9-1.6-1.5-2.1-.4-.4-1-.8-1.5-1.1.9 0 1.9.1 2.8.3 3.8.8 7.6 1.9 11.4 2.8.8 1.2 1 2.5.7 3.9z" fill="#452c22" stroke-width="none" opacity="1"></path></g></g></g><g id="svga-group-eyebrows-right-move" transform="matrix(1,0,0,1,0,1)"><g id="svga-group-eyebrows-right-rotate" transform="matrix(1,1.7453292519943295e-9,-1.7453292519943295e-9,1,1.5032446754048578e-7,-2.0871141259704018e-7)"><g id="svga-group-eyebrows-right"><path id="SvgjsPath12797" d="M131.2 86s-.1 0 0 0c-.1-.1-.1-.1-.1-.2-.3-.6-.9-1-1.4-1.3-.6-.4-1.3-.9-1.9-1.3h-.1c-1.5-1.1-4-1.3-6-.8-1.9.2-3.8.8-5 1.3-.1 0-.2.1-.4.1-1.6.3-3.3.6-4.8 1.2-1.5.3-3 .5-4.4 1h-.1c-.1-.1-.4 0-.4.2-.1.2-.1.4 0 .7-.2 0-.3.1-.3.3.1.5.3.9.6 1.3v.1c.3.8.9 1.1 1.8 1 .1 0 .2 0 .4-.1.1.1.2.1.3.1 1.6-.1 3.2-.8 4.6-1.4.9-.4 1.9-.8 2.8-1.3 1.4-.2 2.8-.6 4.2-.9 1.3-.3 2.8-.3 4-.8.4.1.9.1 1.3.2.3.1.6.2 1 .2 1 .3 2.2.8 3.2.9h.1c.1 0 .1.1.2.1.2.2.4.4.7.5.1 0 .3-.1.3-.2 0-.5-.3-.7-.6-.9z" fill="#543c32" stroke-width="none" opacity="1"></path><path id="SvgjsPath12798" d="M110.1 85.4c-1.3.8-1.5 2.8-1.3 4.2 0 .3.5.3.6 0 .2-.7.2-1.4.3-2.1.2-.6.4-1.1.7-1.7.1-.3-.1-.6-.3-.4zm3.2-.9c-2.1.4-3.4 2.9-3.6 4.8 0 .2.3.2.3.1.2-1 .6-1.9 1.2-2.7.6-.8 1.4-1.3 2.2-2 .1-.1 0-.3-.1-.2zm5.7-1.4c-.9.2-1.9 1-2.6 1.7-.7.7-1.3 1.5-1.5 2.4 0 .2.2.3.3.2.5-.8.9-1.6 1.7-2.2.7-.6 1.6-1 2.2-1.8.1-.2.1-.3-.1-.3zm4.7-1.1c-2.3 0-4.7 2.1-5.4 4.2-.1.2.2.3.3.1.6-.9 1.2-1.8 2.1-2.5.9-.7 1.9-1 3-1.4.3-.1.3-.4 0-.4zm5.6 2.4c-2.1-2.7-6.2-1.8-7.9.8-.1.2.2.4.3.2 1-.9 2.1-1.9 3.5-2 1.5-.2 2.7.8 4 1.3.2.1.2-.2.1-.3z" fill="#634e45" stroke-width="none" opacity="1"></path><path id="SvgjsPath12799" d="M111.1 89.8c1.5-.6 3.1-1.2 4.6-1.8 2.9-1 6.1-2.1 9.2-2.1 2.9-.1 5.5.9 7.9 2.4.4.2.8-.4.4-.6-.1-.1-.2-.2-.4-.2-2.7-3.3-5.7-6.2-10.3-5.7-2.5.3-4.9 1.1-7.3 1.7-2.8.8-5.6 1.4-8.3 2.4-.2.1-.1.3.1.3.6-.1 1.1-.2 1.7-.4-.8 1-1 2.5-.6 3.7-.4-.1-.8-.4-1.1-1-.3-.6-.4-1.2-.7-1.8-.1-.2-.5-.2-.5.1.1 1.4.5 3.2 2 3.7 1.2.1 2.3-.3 3.3-.7zm19.9-3.5c-3-1.4-6.2-1.7-9.5-1-.1 0-.2.1-.4.1.4-.5.8-1.1 1.3-1.6.7-.6 1.5-.9 2.3-1.4 1.1.1 2.1.5 3.1 1.1 1.3.8 2.3 1.8 3.2 2.8zm-21.6-.7c3.8-.9 7.6-2 11.4-2.8 1-.2 1.9-.3 2.8-.3-.6.3-1.1.7-1.5 1.1-.6.5-1.3 1.3-1.5 2.1-1 .2-2 .5-2.9.8.4-.6.8-1.2 1.3-1.7.6-.6 1.3-1.1 1.9-1.7.1-.1 0-.3-.2-.3-1.5.6-2.9 2.2-3.6 3.8-.8.2-1.6.5-2.3.8.2-.7.5-1.4.9-2.1.1-.2-.1-.3-.2-.2-.6.6-.9 1.6-.9 2.4-.2.1-.4.1-.6.2-1.2.5-2.4 1.1-3.6 1.5-.6.2-1.2.4-1.7.3-.4-1.4-.2-2.7.7-3.9z" fill="#452c22" stroke-width="none" opacity="1"></path></g></g></g><g id="svga-group-nose-single-move" transform="matrix(1,0,0,1,0,2)"><g id="svga-group-nose-single" transform="matrix(0.8999996000000001,0,0,0.8999996000000001,9.988879295567315,10.637100806289666)"><path id="SvgjsPath12780" d="M97.72 89.37c-.8 3.33-.91 6.89-1.27 10.29-.38 3.64-1.08 7.4-1.03 11.06 0 .29.45.37.52.07.74-3.34.83-6.91 1.18-10.31.37-3.64 1.05-7.41.93-11.06 0-.19-.28-.24-.33-.05z" fill="#c8837c" stroke-width="none" opacity="1" transform="translate(0 2)"></path><path id="SvgjsPath12781" d="M94.71 108.8c-.98 1.31-1.8 2.73-2.52 4.2-.46.95-1.04 2.07-.73 3.16.5 1.8 2.79 2.36 4.28 1.51.44-.26.24-.95-.26-.95-.87-.01-1.89.27-2.58-.47-.84-.89-.01-2.5.36-3.4.55-1.32 1.22-2.59 1.74-3.92.07-.19-.19-.26-.29-.13z" fill="#c8837c" stroke-width="none" opacity="1" transform="translate(0 2)"></path><path id="SvgjsPath12782" d="M94.57 116.21c2.7-.2 3.21 3.2 5.78 3.28 2.2.07 2.37-3.24 4.46-3.14.24.01.32-.33.12-.45-2.37-1.4-2.81 2.72-4.99 2.46-1.29-.15-2.21-2.05-3.37-2.6-.79-.37-1.36-.34-2.13.01-.19.11-.09.46.13.44z" fill="#c8837c" stroke-width="none" opacity="1" transform="translate(0 2)"></path><path id="SvgjsPath12783" d="M104.07 117.75c1.78.4 3.85-.15 4.27-2.13.21-.99-.12-1.97-.64-2.81-.84-1.37-1.93-2.53-2.73-3.95-.13-.24-.47-.12-.48.13-.1 1.59 1.08 2.69 1.92 3.92.78 1.13 1.45 2.69.14 3.81-.6.51-1.74.42-2.48.56-.24.05-.23.42 0 .47z" fill="#c8837c" stroke-width="none" opacity="1" transform="translate(0 2)"></path><path id="SvgjsPath12784" d="M102.32 112.41c-.39-.7-1.4-.81-1.96-.25-.05.05-.23.28-.28.34-.06.08-.19.25-.21.28-.06.1-.12.2-.17.3l-.11.26c0-.01-.01.01-.03.05-.06.06-.12.13-.17.19-.17.18-.34.36-.48.57-.4.63-.08 1.35.46 1.75.83.62 2.03.12 2.61-.58.7-.84.89-1.92.34-2.91z" fill="#fef7f6" stroke-width="none" opacity="1" transform="translate(0 2)"></path></g></g><g id="svga-group-hair-front"><path id="SvgjsPath12840" d="M121.5 56s-6.3 13.8-31.2 17-29.8 16-26.9 21.6c2.9 5.6 9.7 9.2 2.4 19.9s-.5 12.6 1.7 16-1.7 5.3-1.9 7.5c-.2 2.2 1.9 4.6 1.9 4.6s-4.8-3.1-3.4-9c1.4-5.8-9-8.7-6.1-16.2 2.9-7.5 5.3-9.4 1-22.3s-5.8-22.5-1.5-34.2c6.1-16.2 41.7-39.7 65.9-13.3 0 0 11.4-1.2 17.4 16 6.1 17.2 1.2 27.4-.7 29.8 0 0-.7.5-2.4-6.1-1.7-6.5-7.5-9.2-11.6-18.4S121.5 56 121.5 56z" fill="#433931" stroke-width="none" opacity="1"></path><path id="SvgjsPath12841" d="M70 170.9c5.4-4.9 4.1-10.9 1.7-15.8 3.3-10.5-3.9-15.3-3.9-15.3S55 144 54.4 151.6c-.3 4.1-.3 7.3.2 9.8-1.1.3-2.2.8-3 1.4-6.4 5.1-3.4 11.7-2.8 14.9s2.4 5.1 2.4 5.1c-1.4 2.3-4.3 7.4-1 16.4s12.9 13.6 12.9 13.6c-4.5-5.6-3.9-14-3.9-14s.6 2.9 2.3 8.6c1.8 5.6 8.2 10.3 8.2 10.3s-1.4-3.1 0-8.8 1.6-8.6 1.6-8.6c-.2 5.3 2.9 10.7 2.9 10.7-1-4.5 1.4-9.7 0-17.7S65 183.1 65 183.1c6.1-6 5-12.2 5-12.2zm53-121.7s.4 2.2-1.5 6.8-7.2 16-32.4 17.7-25.4 19.7-24.3 21.6 6.6 9.3 3.4 14.4c0 0 .8-5.7-3.6-11.6s-5.3-10.4-.4-17.3S77.7 72 92.7 70.5s21.4-5.5 24.3-9.7c3-4.2 4.9-8.9 6-11.6zm-5.1.4s-3.4 7.8-20.5 10.8-33.2 5.9-38.3 21c0 0-.4-6.3 8.5-14.2s32.6-9.3 38.1-10.4c5.4-1.1 10.3-5.1 12.2-7.2zm-9.5-6.4s-29-3.2-43.8 17.4c0 0 4.9-10.8 17.6-16.3s26.2-1.1 26.2-1.1zM125.5 54s1.7 11.2 7.2 18.8c5.5 7.6 8.7 16.1 8.7 16.1s0-8.5-4.9-15.7c-4.9-7.1-8.9-12-11-19.2zm1.3-2.5s11.4 10.8 15.4 27.7c0 0-.6-10.6-5.3-17.6-4.6-6.9-10.1-10.1-10.1-10.1z" fill="#3b3128" stroke-width="none" opacity="1"></path><path id="SvgjsPath12842" d="M119.2 54.9s-5.2 11.4-24.9 13c-19.7 1.7-25.4 4.3-29.9 8.5 0 0 6.4-9.7 18.5-11.6s26.3-3 36.3-9.9zm-2.2-8.1s-4.5 7.1-20.2 8.5-27.5 4.5-34.6 13.5c0 0 5.5-16.4 22.8-20.6s16.1.5 32-1.4zM127.9 57s2.4 5.2 5.9 10.2 6.4 10.4 7.4 14.5c0 0-.7-9.5-5.2-16.1s-8.1-8.6-8.1-8.6z" fill="#4a423a" stroke-width="none" opacity="1"></path><path id="SvgjsPath12843" d="M57.9 172.9c-2.2 2.4-1.2 6.4-1.2 6.4s.4-4.1 3.7-5.7c3.3-1.6 7.8-2.5 9.6-2.6 0 0 4.2-4.9 2.1-12.9 0 0-1 8.3-5.3 9.4-4.2 1-6.7 3-8.9 5.4zm8.2 18.5c-1-4.1-5.8-6.9-7.6-7.9 1.7 0 3 .1 3 .1s-2.4-.1-6.4-1.9c-4-1.7-5.7-7.8-5.4-11 .2-2.3 2.3-4.8 3.6-5.9 2.4 2.4 5.7 3.6 5.7 3.6-5-6-2.8-11.8-1.6-14.2 4.4 3.6 8 3.6 8 3.6-14.2-8.4-12-22.7-12-22.7-1.5 2.5-4.5 9.9 1.1 16.4-3.2 1.3-4.8 7.4-2.9 11-1.5 1-3.7 3.1-4.6 7.5-1.5 7 2.9 12.2 4.2 12.8 0 0-3.3 4.3-.2 16.2 3 11.9 12.1 13.8 12.1 13.8-6-3.8-9.9-12.9-10.5-18.7-.5-4.7 1.3-9.2 2.1-10.8 1.1.1 2.3.1 3.4.1.9 1 3.5 4.4 4.9 9.3 1.6 6 .5 9.9 1.2 14.2.7 4.2 4.4 9.1 4.4 9.1s-3.1-6.5-2.9-11.5c0-4.9 1.6-8.1.4-13.1zm5.1-.9c-2.2-5.2-6.5-6.1-6.5-6.1 4.5 3.7 5.7 7.8 6 11.9.3 4.1 2 8.4 2 8.4-.3-3.1.8-9.1-1.5-14.2zm-.1-38.1c.8-3.7-.7-9.5-2.6-11.8 0 0 3.5 7.5-.8 17.6 0 0 2.5-2.1 3.4-5.8zm-8.1-8.3s-7.2-7.4-10.6-20.9c0 0-2.1 16.7 10.6 20.9z" fill="#332920" stroke-width="none" opacity="1"></path></g><g id="svga-group-glasses-single-move" transform="matrix(1,0,0,1,0,0)"><g id="svga-group-glasses-single"></g></g></g></g></g><rect id="svga-credit-rect" width="200" height="15" x="0" y="185" fill="#ecf0f1" opacity="0.5" style="display: none;"></rect><text id="svga-credit-text" font-family="Avenir Next, Roboto, Helvetica, Arial, sans-serif" font-size="10px" text-anchor="start" font-weight="400" size="10px" anchor="start" weight="400" fill="#333333" x="33.40447998046875" y="182.60824704170227" style="display: none;"><tspan id="SvgjsTspan12583" dy="13" x="33.40447998046875">Created on AvatarMaker.com</tspan></text></g><defs id="SvgjsDefs12535"></defs></svg>